AbhayaLibreb-Bold.ufo
<glyph name="ampersand" format="1">
  <advance width="589"/>
  <unicode hex="0026"/>
  <outline>
    <contour>
      <point x="587" y="0" type="line"/>
      <point x="438" y="154"/>
      <point x="246" y="402"/>
      <point x="246" y="510" type="curve" smooth="yes"/>
      <point x="246" y="550"/>
      <point x="269" y="582"/>
      <point x="309" y="582" type="curve" smooth="yes"/>
      <point x="354" y="582"/>
      <point x="376" y="555"/>
      <point x="376" y="510" type="curve" smooth="yes"/>
      <point x="376" y="465"/>
      <point x="328" y="400"/>
      <point x="225" y="388" type="curve"/>
      <point x="231" y="364" type="line"/>
      <point x="342" y="375"/>
      <point x="404" y="450"/>
      <point x="404" y="510" type="curve" smooth="yes"/>
      <point x="404" y="570"/>
      <point x="364" y="610"/>
      <point x="289" y="610" type="curve" smooth="yes"/>
      <point x="214" y="610"/>
      <point x="139" y="570"/>
      <point x="139" y="480" type="curve" smooth="yes"/>
      <point x="139" y="363"/>
      <point x="300" y="137"/>
      <point x="429" y="0" type="curve"/>
    </contour>
    <contour>
      <point x="528" y="319" type="curve"/>
      <point x="500" y="326" type="line"/>
      <point x="500" y="141"/>
      <point x="405" y="20"/>
      <point x="271" y="20" type="curve" smooth="yes"/>
      <point x="162" y="20"/>
      <point x="152" y="105"/>
      <point x="152" y="202" type="curve" smooth="yes"/>
      <point x="152" y="277"/>
      <point x="160" y="346"/>
      <point x="212" y="346" type="curve"/>
      <point x="198" y="368" type="line"/>
      <point x="86" y="344"/>
      <point x="25" y="275"/>
      <point x="25" y="176" type="curve" smooth="yes"/>
      <point x="25" y="78"/>
      <point x="98" y="-10"/>
      <point x="239" y="-10" type="curve" smooth="yes"/>
      <point x="450" y="-10"/>
      <point x="528" y="158"/>
    </contour>
    <contour>
      <point x="604" y="0" type="line"/>
      <point x="604" y="22"/>
      <point x="597" y="26"/>
      <point x="579" y="26" type="curve" smooth="yes"/>
      <point x="565" y="26" type="line"/>
      <point x="428" y="26" type="line"/>
      <point x="441" y="0" type="line"/>
    </contour>
    <contour>
      <point x="561" y="320" type="line" smooth="yes"/>
      <point x="580" y="320"/>
      <point x="589" y="322"/>
      <point x="589" y="347" type="curve"/>
      <point x="445" y="347" type="line"/>
      <point x="445" y="321" type="line"/>
      <point x="506" y="321" type="line"/>
      <point x="530" y="319" type="line"/>
    </contour>
  </outline>
</glyph>
<glyph name="colon" format="1">
  <advance width="201"/>
  <unicode hex="003A"/>
  <outline>
    <contour>
      <point x="171" y="104" type="curve" smooth="yes"/>
      <point x="171" y="143"/>
      <point x="139" y="180"/>
      <point x="100" y="180" type="curve" smooth="yes"/>
      <point x="61" y="180"/>
      <point x="30" y="143"/>
      <point x="30" y="104" type="curve" smooth="yes"/>
      <point x="30" y="64"/>
      <point x="61" y="34"/>
      <point x="100" y="34" type="curve" smooth="yes"/>
      <point x="139" y="34"/>
      <point x="171" y="64"/>
    </contour>
    <contour>
      <point x="171" y="332" type="curve" smooth="yes"/>
      <point x="171" y="371"/>
      <point x="139" y="403"/>
      <point x="100" y="403" type="curve" smooth="yes"/>
      <point x="61" y="403"/>
      <point x="30" y="371"/>
      <point x="30" y="332" type="curve" smooth="yes"/>
      <point x="30" y="292"/>
      <point x="61" y="262"/>
      <point x="100" y="262" type="curve" smooth="yes"/>
      <point x="139" y="262"/>
      <point x="171" y="292"/>
    </contour>
  </outline>
</glyph>
<glyph name="C" format="1">
  <advance width="600"/>
  <unicode hex="0043"/>
  <outline>
    <contour>
      <point x="304" y="700" type="move" name="top"/>
    </contour>
    <contour>
      <point x="341" y="0" type="move" name="bottom"/>
    </contour>
    <contour>
      <point x="545" y="39" type="curve"/>
      <point x="544" y="-1"/>
      <point x="554" y="-5"/>
      <point x="580" y="-5" type="curve"/>
      <point x="580" y="192" type="line"/>
      <point x="547" y="192" type="line"/>
      <point x="513" y="63"/>
      <point x="450" y="20"/>
      <point x="358" y="20" type="curve" smooth="yes"/>
      <point x="219" y="20"/>
      <point x="187" y="142"/>
      <point x="187" y="305" type="curve" smooth="yes"/>
      <point x="187" y="484"/>
      <point x="245" y="580"/>
      <point x="366" y="580" type="curve" smooth="yes"/>
      <point x="461" y="580"/>
      <point x="509" y="529"/>
      <point x="542" y="408" type="curve"/>
      <point x="577" y="408" type="line"/>
      <point x="574" y="605" type="line"/>
      <point x="549" y="605"/>
      <point x="540" y="599"/>
      <point x="542" y="563" type="curve"/>
      <point x="483" y="595"/>
      <point x="417" y="610"/>
      <point x="350" y="610" type="curve" smooth="yes"/>
      <point x="137" y="610"/>
      <point x="30" y="455"/>
      <point x="30" y="300" type="curve" smooth="yes"/>
      <point x="30" y="145"/>
      <point x="137" y="-10"/>
      <point x="347" y="-10" type="curve" smooth="yes"/>
      <point x="415" y="-10"/>
      <point x="483" y="7"/>
    </contour>
  </outline>
</glyph>
<glyph name="D" format="1">
  <advance width="670"/>
  <unicode hex="0044"/>
  <outline>
    <contour>
      <point x="338" y="350" type="move" name="center"/>
    </contour>
    <contour>
      <point x="328" y="630" type="move" name="top"/>
    </contour>
    <contour>
      <point x="20" y="600" type="line"/>
      <point x="20" y="573" type="line"/>
      <point x="318" y="573" type="line" smooth="yes"/>
      <point x="426" y="573"/>
      <point x="478" y="500"/>
      <point x="478" y="303" type="curve" smooth="yes"/>
      <point x="478" y="98"/>
      <point x="424" y="27"/>
      <point x="316" y="27" type="curve" smooth="yes"/>
      <point x="20" y="27" type="line"/>
      <point x="20" y="0" type="line"/>
      <point x="318" y="0" type="line" smooth="yes"/>
      <point x="482" y="0"/>
      <point x="635" y="103"/>
      <point x="635" y="298" type="curve" smooth="yes"/>
      <point x="635" y="503"/>
      <point x="480" y="600"/>
      <point x="315" y="600" type="curve" smooth="yes"/>
    </contour>
    <component base="vertical_stem_upper" xOffset="58"/>
  </outline>
</glyph>
<glyph name="O" format="1">
  <advance width="704"/>
  <unicode hex="004F"/>
  <outline>
    <contour>
      <point x="358" y="630" type="move" name="top"/>
    </contour>
    <contour>
      <point x="355" y="610" type="curve" smooth="yes"/>
      <point x="190" y="610"/>
      <point x="35" y="497"/>
      <point x="35" y="302" type="curve" smooth="yes"/>
      <point x="35" y="102"/>
      <point x="187" y="-10"/>
      <point x="352" y="-10" type="curve" smooth="yes"/>
      <point x="516" y="-10"/>
      <point x="669" y="103"/>
      <point x="669" y="298" type="curve" smooth="yes"/>
      <point x="669" y="503"/>
      <point x="520" y="610"/>
    </contour>
    <contour>
      <point x="355" y="19" type="curve" smooth="yes"/>
      <point x="247" y="19"/>
      <point x="192" y="88"/>
      <point x="192" y="298" type="curve" smooth="yes"/>
      <point x="192" y="498"/>
      <point x="244" y="581"/>
      <point x="352" y="581" type="curve" smooth="yes"/>
      <point x="460" y="581"/>
      <point x="512" y="500"/>
      <point x="512" y="303" type="curve" smooth="yes"/>
      <point x="512" y="98"/>
      <point x="463" y="19"/>
    </contour>
  </outline>
</glyph>
<glyph name="P" format="1">
  <advance width="562"/>
  <unicode hex="0050"/>
  <outline>
    <contour>
      <point x="20" y="600" type="line"/>
      <point x="20" y="573" type="line"/>
      <point x="297" y="573" type="line" smooth="yes"/>
      <point x="379" y="573"/>
      <point x="402" y="508"/>
      <point x="402" y="433" type="curve" smooth="yes"/>
      <point x="402" y="353"/>
      <point x="373" y="294"/>
      <point x="293" y="294" type="curve" smooth="yes"/>
      <point x="140" y="294" type="line"/>
      <point x="140" y="264" type="line"/>
      <point x="322" y="264" type="line" smooth="yes"/>
      <point x="485" y="264"/>
      <point x="552" y="342"/>
      <point x="552" y="442" type="curve" smooth="yes"/>
      <point x="552" y="532"/>
      <point x="486" y="600"/>
      <point x="354" y="600" type="curve" smooth="yes"/>
    </contour>
    <contour>
      <point x="340" y="0" type="line"/>
      <point x="340" y="20"/>
      <point x="333" y="27"/>
      <point x="313" y="27" type="curve" smooth="yes"/>
      <point x="20" y="27" type="line"/>
      <point x="20" y="0" type="line"/>
    </contour>
    <component base="vertical_stem_upper" xOffset="58"/>
  </outline>
</glyph>
<glyph name="Q" format="1">
  <advance width="709"/>
  <unicode hex="0051"/>
  <outline>
    <contour>
      <point x="357" y="610" type="curve" smooth="yes"/>
      <point x="192" y="610"/>
      <point x="37" y="497"/>
      <point x="37" y="302" type="curve" smooth="yes"/>
      <point x="37" y="102"/>
      <point x="189" y="-10"/>
      <point x="354" y="-10" type="curve" smooth="yes"/>
      <point x="518" y="-10"/>
      <point x="671" y="103"/>
      <point x="671" y="298" type="curve" smooth="yes"/>
      <point x="671" y="503"/>
      <point x="522" y="610"/>
    </contour>
    <contour>
      <point x="357" y="19" type="curve" smooth="yes"/>
      <point x="239" y="19"/>
      <point x="191" y="88"/>
      <point x="191" y="298" type="curve" smooth="yes"/>
      <point x="191" y="498"/>
      <point x="243" y="581"/>
      <point x="354" y="581" type="curve" smooth="yes"/>
      <point x="465" y="581"/>
      <point x="517" y="500"/>
      <point x="517" y="303" type="curve" smooth="yes"/>
      <point x="517" y="98"/>
      <point x="474" y="19"/>
    </contour>
    <contour>
      <point x="330" y="79" type="curve" smooth="yes"/>
      <point x="420" y="79"/>
      <point x="467" y="-160"/>
      <point x="603" y="-160" type="curve" smooth="yes"/>
      <point x="659" y="-160"/>
      <point x="705" y="-118"/>
      <point x="739" y="-35" type="curve"/>
      <point x="715" y="-21" type="line"/>
      <point x="676" y="-60"/>
      <point x="655" y="-70"/>
      <point x="623" y="-70" type="curve" smooth="yes"/>
      <point x="520" y="-70"/>
      <point x="454" y="126"/>
      <point x="340" y="126" type="curve" smooth="yes"/>
      <point x="295" y="126"/>
      <point x="253" y="87"/>
      <point x="227" y="39" type="curve"/>
      <point x="246" y="23" type="line"/>
      <point x="274" y="58"/>
      <point x="300" y="79"/>
    </contour>
  </outline>
</glyph>
<glyph name="R" format="1">
  <advance width="614"/>
  <unicode hex="0052"/>
  <outline>
    <contour>
      <point x="304" y="630" type="move" name="top"/>
    </contour>
    <contour>
      <point x="321" y="0" type="move" name="bottom"/>
    </contour>
    <contour>
      <point x="320" y="0" type="line"/>
      <point x="320" y="27" type="line"/>
      <point x="20" y="27" type="line"/>
      <point x="20" y="0" type="line"/>
    </contour>
    <contour>
      <point x="283" y="286" type="line"/>
      <point x="438" y="-1" type="line"/>
      <point x="614" y="0" type="line"/>
      <point x="614" y="20"/>
      <point x="608" y="26"/>
      <point x="588" y="26" type="curve" smooth="yes"/>
      <point x="575" y="26" type="line"/>
      <point x="407" y="309" type="line"/>
    </contour>
    <contour>
      <point x="20" y="600" type="line"/>
      <point x="20" y="573" type="line"/>
      <point x="294" y="573" type="line" smooth="yes"/>
      <point x="376" y="573"/>
      <point x="407" y="505"/>
      <point x="407" y="438" type="curve" smooth="yes"/>
      <point x="407" y="371"/>
      <point x="377" y="304"/>
      <point x="302" y="304" type="curve" smooth="yes"/>
      <point x="140" y="304" type="line"/>
      <point x="140" y="274" type="line"/>
      <point x="322" y="274" type="line" smooth="yes"/>
      <point x="481" y="274"/>
      <point x="556" y="350"/>
      <point x="556" y="443" type="curve" smooth="yes"/>
      <point x="556" y="523"/>
      <point x="484" y="600"/>
      <point x="354" y="600" type="curve" smooth="yes"/>
    </contour>
    <component base="vertical_stem_upper" xOffset="58"/>
  </outline>
</glyph>
<glyph name="T" format="1">
  <advance width="556"/>
  <unicode hex="0054"/>
  <outline>
    <contour>
      <point x="278" y="350" type="move" name="center"/>
    </contour>
    <contour>
      <point x="274" y="0" type="move" name="bottom"/>
    </contour>
    <contour>
      <point x="278" y="630" type="move" name="top"/>
    </contour>
    <contour>
      <point x="443" y="0" type="line"/>
      <point x="443" y="20"/>
      <point x="436" y="27"/>
      <point x="416" y="27" type="curve" smooth="yes"/>
      <point x="113" y="27" type="line"/>
      <point x="113" y="0" type="line"/>
    </contour>
    <contour>
      <point x="19" y="600" type="line"/>
      <point x="15" y="386" type="line"/>
      <point x="45" y="386" type="line"/>
      <point x="76" y="476" type="line" smooth="yes"/>
      <point x="93" y="525"/>
      <point x="115" y="573"/>
      <point x="191" y="573" type="curve" smooth="yes"/>
      <point x="365" y="573" type="line" smooth="yes"/>
      <point x="441" y="573"/>
      <point x="463" y="525"/>
      <point x="480" y="476" type="curve" smooth="yes"/>
      <point x="511" y="386" type="line"/>
      <point x="541" y="386" type="line"/>
      <point x="537" y="600" type="line"/>
    </contour>
    <component base="vertical_stem_upper" xOffset="166"/>
  </outline>
</glyph>
<glyph name="c" format="1">
  <advance width="454"/>
  <unicode hex="0063"/>
  <outline>
    <contour>
      <point x="250" y="500" type="move" name="top"/>
    </contour>
    <contour>
      <point x="248" y="0" type="move" name="bottom"/>
    </contour>
    <contour>
      <point x="30" y="216" type="curve" smooth="yes"/>
      <point x="30" y="60"/>
      <point x="134" y="-10"/>
      <point x="260" y="-10" type="curve" smooth="yes"/>
      <point x="343" y="-10"/>
      <point x="422" y="27"/>
      <point x="449" y="101" type="curve"/>
      <point x="423" y="108" type="line"/>
      <point x="400" y="58"/>
      <point x="345" y="19"/>
      <point x="276" y="19" type="curve" smooth="yes"/>
      <point x="208" y="19"/>
      <point x="167" y="56"/>
      <point x="167" y="211" type="curve" smooth="yes"/>
      <point x="167" y="367"/>
      <point x="196" y="420"/>
      <point x="258" y="420" type="curve" smooth="yes"/>
      <point x="359" y="420"/>
      <point x="274" y="283"/>
      <point x="379" y="283" type="curve" smooth="yes"/>
      <point x="422" y="283"/>
      <point x="444" y="308"/>
      <point x="444" y="337" type="curve" smooth="yes"/>
      <point x="444" y="384"/>
      <point x="384" y="445"/>
      <point x="261" y="445" type="curve" smooth="yes"/>
      <point x="149" y="445"/>
      <point x="30" y="375"/>
    </contour>
  </outline>
</glyph>
<glyph name="k" format="1">
  <advance width="527"/>
  <unicode hex="006B"/>
  <outline>
    <contour>
      <point x="290" y="0" type="move" name="bottom"/>
    </contour>
    <contour>
      <point x="270" y="26" type="curve" smooth="yes"/>
      <point x="218" y="26" type="line"/>
      <point x="218" y="650" type="line"/>
      <point x="15" y="650" type="line"/>
      <point x="15" y="624" type="line"/>
      <point x="91" y="624" type="line"/>
      <point x="91" y="78" type="line" smooth="yes"/>
      <point x="91" y="36"/>
      <point x="57" y="26"/>
      <point x="15" y="26" type="curve"/>
      <point x="15" y="0" type="line"/>
      <point x="294" y="0" type="line"/>
      <point x="294" y="22"/>
      <point x="289" y="26"/>
    </contour>
    <contour>
      <point x="194" y="157" type="line"/>
      <point x="411" y="366" type="line" smooth="yes"/>
      <point x="443" y="396"/>
      <point x="454" y="404"/>
      <point x="481" y="404" type="curve" smooth="yes"/>
      <point x="501" y="404"/>
      <point x="507" y="410"/>
      <point x="507" y="430" type="curve"/>
      <point x="338" y="430" type="line"/>
      <point x="338" y="404" type="line"/>
      <point x="411" y="404" type="line"/>
      <point x="188" y="192" type="line"/>
    </contour>
    <contour>
      <point x="244" y="220" type="line"/>
      <point x="371" y="-1" type="line"/>
      <point x="537" y="0" type="line"/>
      <point x="537" y="23"/>
      <point x="532" y="26"/>
      <point x="513" y="26" type="curve" smooth="yes"/>
      <point x="498" y="26" type="line"/>
      <point x="335" y="299" type="line"/>
    </contour>
  </outline>
</glyph>
<glyph name="o" format="1">
  <advance width="521"/>
  <unicode hex="006F"/>
  <outline>
    <contour>
      <point x="271" y="500" type="move" name="top"/>
    </contour>
    <contour>
      <point x="167" y="217" type="curve" smooth="yes"/>
      <point x="167" y="352"/>
      <point x="183" y="419"/>
      <point x="260" y="419" type="curve" smooth="yes"/>
      <point x="340" y="419"/>
      <point x="354" y="352"/>
      <point x="354" y="221" type="curve" smooth="yes"/>
      <point x="354" y="86"/>
      <point x="336" y="16"/>
      <point x="259" y="16" type="curve" smooth="yes"/>
      <point x="179" y="16"/>
      <point x="167" y="85"/>
    </contour>
    <contour>
      <point x="265" y="445" type="curve" smooth="yes"/>
      <point x="125" y="445"/>
      <point x="30" y="351"/>
      <point x="30" y="221" type="curve" smooth="yes"/>
      <point x="30" y="91"/>
      <point x="121" y="-10"/>
      <point x="256" y="-10" type="curve" smooth="yes"/>
      <point x="396" y="-10"/>
      <point x="491" y="93"/>
      <point x="491" y="223" type="curve" smooth="yes"/>
      <point x="491" y="348"/>
      <point x="405" y="445"/>
    </contour>
  </outline>
</glyph>
<glyph name="r" format="1">
  <advance width="422"/>
  <unicode hex="0072"/>
  <outline>
    <contour>
      <point x="200" y="500" type="move" name="top"/>
    </contour>
    <contour>
      <point x="146" y="0" type="move" name="bottom"/>
    </contour>
    <contour>
      <point x="417" y="372" type="curve" smooth="yes"/>
      <point x="417" y="416"/>
      <point x="384" y="438"/>
      <point x="343" y="438" type="curve" smooth="yes"/>
      <point x="287" y="438"/>
      <point x="218" y="398"/>
      <point x="197" y="322" type="curve"/>
      <point x="204" y="210" type="line"/>
      <point x="204" y="342"/>
      <point x="249" y="373"/>
      <point x="269" y="373" type="curve" smooth="yes"/>
      <point x="297" y="373"/>
      <point x="292" y="307"/>
      <point x="354" y="307" type="curve" smooth="yes"/>
      <point x="392" y="307"/>
      <point x="417" y="340"/>
    </contour>
    <contour>
      <point x="279" y="26" type="curve" smooth="yes"/>
      <point x="205" y="26" type="line"/>
      <point x="205" y="295" type="line"/>
      <point x="195" y="430" type="line"/>
      <point x="20" y="430" type="line"/>
      <point x="20" y="404" type="line"/>
      <point x="78" y="404" type="line"/>
      <point x="78" y="78" type="line" smooth="yes"/>
      <point x="78" y="36"/>
      <point x="58" y="26"/>
      <point x="20" y="26" type="curve"/>
      <point x="20" y="0" type="line"/>
      <point x="303" y="0" type="line"/>
      <point x="303" y="22"/>
      <point x="298" y="26"/>
    </contour>
  </outline>
</glyph>
<glyph name="x" format="1">
  <advance width="482"/>
  <unicode hex="0078"/>
  <outline>
    <contour>
      <point x="255" y="199" type="line"/>
      <point x="390" y="375" type="line" smooth="yes"/>
      <point x="430" y="428"/>
      <point x="460" y="384"/>
      <point x="460" y="430" type="curve"/>
      <point x="312" y="430" type="line"/>
      <point x="312" y="404" type="line"/>
      <point x="377" y="404" type="line"/>
      <point x="240" y="226" type="line"/>
    </contour>
    <contour>
      <point x="5" y="0" type="curve"/>
      <point x="156" y="0" type="line"/>
      <point x="156" y="26" type="line"/>
      <point x="86" y="26" type="line"/>
      <point x="237" y="214" type="line"/>
      <point x="219" y="235" type="line"/>
      <point x="73" y="55" type="line" smooth="yes"/>
      <point x="31" y="4"/>
      <point x="5" y="46"/>
    </contour>
    <contour>
      <point x="437" y="26" type="line"/>
      <point x="186" y="404" type="line"/>
      <point x="241" y="404" type="line"/>
      <point x="241" y="430" type="line"/>
      <point x="9" y="430" type="line"/>
      <point x="9" y="404" type="line"/>
      <point x="55" y="404" type="line"/>
      <point x="306" y="26" type="line"/>
      <point x="251" y="26" type="line"/>
      <point x="251" y="0" type="line"/>
      <point x="482" y="0" type="line"/>
      <point x="482" y="22"/>
      <point x="475" y="26"/>
      <point x="457" y="26" type="curve" smooth="yes"/>
    </contour>
  </outline>
</glyph>
<glyph name="braceleft" format="1">
  <advance width="400"/>
  <unicode hex="007B"/>
  <outline>
    <contour>
      <point x="271" y="148" type="curve" smooth="yes"/>
      <point x="271" y="-3" type="line" smooth="yes"/>
      <point x="271" y="-93"/>
      <point x="260" y="-107"/>
      <point x="380" y="-107" type="curve"/>
      <point x="380" y="-136" type="line"/>
      <point x="210" y="-136"/>
      <point x="146" y="-131"/>
      <point x="146" y="4" type="curve" smooth="yes"/>
      <point x="146" y="153" type="line" smooth="yes"/>
      <point x="146" y="211"/>
      <point x="132" y="231"/>
      <point x="70" y="244" type="curve"/>
      <point x="70" y="265" type="line"/>
      <point x="132" y="278"/>
      <point x="146" y="298"/>
      <point x="146" y="356" type="curve" smooth="yes"/>
      <point x="146" y="505" type="line" smooth="yes"/>
      <point x="146" y="640"/>
      <point x="210" y="645"/>
      <point x="380" y="645" type="curve"/>
      <point x="380" y="616" type="line"/>
      <point x="260" y="616"/>
      <point x="271" y="602"/>
      <point x="271" y="512" type="curve" smooth="yes"/>
      <point x="271" y="361" type="line" smooth="yes"/>
      <point x="271" y="292"/>
      <point x="230" y="274"/>
      <point x="195" y="257" type="curve"/>
      <point x="195" y="252" type="line"/>
      <point x="230" y="235"/>
      <point x="271" y="217"/>
    </contour>
  </outline>
</glyph>
<glyph name="copyright" format="1">
  <advance width="631"/>
  <unicode hex="00A9"/>
  <outline>
    <contour>
      <point x="601" y="275" type="curve" smooth="yes"/>
      <point x="601" y="432"/>
      <point x="484" y="559"/>
      <point x="316" y="559" type="curve" smooth="yes"/>
      <point x="147" y="559"/>
      <point x="30" y="433"/>
      <point x="30" y="275" type="curve" smooth="yes"/>
      <point x="30" y="117"/>
      <point x="148" y="-10"/>
      <point x="316" y="-10" type="curve" smooth="yes"/>
      <point x="484" y="-10"/>
      <point x="601" y="117"/>
    </contour>
    <contour>
      <point x="62" y="275" type="curve" smooth="yes"/>
      <point x="62" y="417"/>
      <point x="161" y="531"/>
      <point x="316" y="531" type="curve" smooth="yes"/>
      <point x="467" y="531"/>
      <point x="569" y="417"/>
      <point x="569" y="275" type="curve" smooth="yes"/>
      <point x="569" y="133"/>
      <point x="467" y="18"/>
      <point x="316" y="18" type="curve" smooth="yes"/>
      <point x="164" y="18"/>
      <point x="62" y="133"/>
    </contour>
    <contour>
      <point x="322" y="455" type="curve" smooth="yes"/>
      <point x="233" y="455"/>
      <point x="137" y="404"/>
      <point x="137" y="274" type="curve" smooth="yes"/>
      <point x="137" y="154"/>
      <point x="228" y="97"/>
      <point x="317" y="97" type="curve" smooth="yes"/>
      <point x="375" y="97"/>
      <point x="432" y="124"/>
      <point x="461" y="181" type="curve"/>
      <point x="438" y="191" type="line"/>
      <point x="415" y="145"/>
      <point x="375" y="127"/>
      <point x="337" y="127" type="curve" smooth="yes"/>
      <point x="278" y="127"/>
      <point x="257" y="200"/>
      <point x="257" y="283" type="curve" smooth="yes"/>
      <point x="257" y="362"/>
      <point x="275" y="430"/>
      <point x="320" y="430" type="curve" smooth="yes"/>
      <point x="385" y="430"/>
      <point x="317" y="317"/>
      <point x="415" y="317" type="curve" smooth="yes"/>
      <point x="445" y="317"/>
      <point x="466" y="332"/>
      <point x="466" y="362" type="curve" smooth="yes"/>
      <point x="466" y="418"/>
      <point x="397" y="455"/>
    </contour>
  </outline>
</glyph>
<glyph name="oslash" format="1">
  <advance width="521"/>
  <unicode hex="00F8"/>
  <outline>
    <contour>
      <point x="34" y="-14" type="line"/>
      <point x="490" y="441" type="line"/>
      <point x="464" y="465" type="line"/>
      <point x="8" y="11" type="line"/>
    </contour>
    <component base="o"/>
  </outline>
</glyph>
<glyph name="circumflex" format="1">
  <advance width="500"/>
  <unicode hex="02C6"/>
  <outline>
    <contour>
      <point x="250" y="500" type="move" name="_top"/>
    </contour>
    <contour>
      <point x="262" y="563" type="curve"/>
      <point x="239" y="563" type="line"/>
      <point x="267" y="552"/>
      <point x="323" y="529"/>
      <point x="375" y="500" type="curve"/>
      <point x="389" y="519" type="line"/>
      <point x="305" y="602"/>
      <point x="297" y="651"/>
      <point x="249" y="651" type="curve" smooth="yes"/>
      <point x="202" y="651"/>
      <point x="191" y="602"/>
      <point x="111" y="519" type="curve"/>
      <point x="125" y="500" type="line"/>
      <point x="185" y="533"/>
      <point x="232" y="551"/>
    </contour>
  </outline>
</glyph>
<glyph name="ring" format="1">
  <advance width="500"/>
  <unicode hex="02DA"/>
  <outline>
    <contour>
      <point x="250" y="500" type="move" name="_top"/>
    </contour>
    <contour>
      <point x="202" y="575" type="curve" smooth="yes"/>
      <point x="202" y="609"/>
      <point x="209" y="645"/>
      <point x="242" y="645" type="curve" smooth="yes"/>
      <point x="277" y="645"/>
      <point x="283" y="609"/>
      <point x="283" y="577" type="curve" smooth="yes"/>
      <point x="283" y="543"/>
      <point x="275" y="506"/>
      <point x="242" y="506" type="curve" smooth="yes"/>
      <point x="207" y="506"/>
      <point x="202" y="543"/>
    </contour>
    <contour>
      <point x="245" y="669" type="curve" smooth="yes"/>
      <point x="165" y="669"/>
      <point x="125" y="629"/>
      <point x="125" y="577" type="curve" smooth="yes"/>
      <point x="125" y="524"/>
      <point x="163" y="482"/>
      <point x="240" y="482" type="curve" smooth="yes"/>
      <point x="320" y="482"/>
      <point x="360" y="525"/>
      <point x="360" y="578" type="curve" smooth="yes"/>
      <point x="360" y="628"/>
      <point x="323" y="669"/>
    </contour>
  </outline>
</glyph>
<glyph name="tilde" format="1">
  <advance width="500"/>
  <unicode hex="02DC"/>
  <outline>
    <contour>
      <point x="257" y="500" type="move" name="_top"/>
    </contour>
    <contour>
      <point x="196" y="652" type="curve" smooth="yes"/>
      <point x="253" y="652"/>
      <point x="298" y="590"/>
      <point x="345" y="590" type="curve" smooth="yes"/>
      <point x="378" y="590"/>
      <point x="392" y="613"/>
      <point x="400" y="645" type="curve"/>
      <point x="421" y="642" type="line"/>
      <point x="415" y="563"/>
      <point x="378" y="512"/>
      <point x="326" y="512" type="curve" smooth="yes"/>
      <point x="269" y="512"/>
      <point x="224" y="574"/>
      <point x="180" y="574" type="curve" smooth="yes"/>
      <point x="144" y="574"/>
      <point x="130" y="551"/>
      <point x="122" y="519" type="curve"/>
      <point x="102" y="522" type="line"/>
      <point x="108" y="601"/>
      <point x="144" y="652"/>
    </contour>
  </outline>
</glyph>
<glyph name="hungarumlaut" format="1">
  <advance width="500"/>
  <unicode hex="02DD"/>
  <outline>
    <contour>
      <point x="258" y="500" type="move" name="_top"/>
    </contour>
    <contour>
      <point x="289" y="579" type="curve" smooth="yes"/>
      <point x="304" y="590"/>
      <point x="309" y="606"/>
      <point x="308" y="621" type="curve" smooth="yes"/>
      <point x="307" y="650"/>
      <point x="281" y="678"/>
      <point x="251" y="676" type="curve" smooth="yes"/>
      <point x="241" y="676"/>
      <point x="232" y="672"/>
      <point x="221" y="664" type="curve" smooth="yes"/>
      <point x="190" y="638"/>
      <point x="172" y="592"/>
      <point x="98" y="521" type="curve"/>
      <point x="113" y="501" type="line"/>
      <point x="185" y="539"/>
      <point x="259" y="555"/>
    </contour>
    <contour>
      <point x="472" y="555" type="curve" smooth="yes"/>
      <point x="489" y="564"/>
      <point x="496" y="579"/>
      <point x="498" y="593" type="curve" smooth="yes"/>
      <point x="500" y="623"/>
      <point x="479" y="654"/>
      <point x="450" y="657" type="curve" smooth="yes"/>
      <point x="440" y="658"/>
      <point x="429" y="656"/>
      <point x="418" y="649" type="curve" smooth="yes"/>
      <point x="383" y="629"/>
      <point x="358" y="587"/>
      <point x="274" y="528" type="curve"/>
      <point x="286" y="505" type="line"/>
      <point x="363" y="533"/>
      <point x="439" y="536"/>
    </contour>
  </outline>
</glyph>
<glyph name="visarga" format="1">
  <advance width="242"/>
  <unicode hex="0D83"/>
  <outline>
    <contour>
      <point x="62" y="108" type="curve" smooth="yes"/>
      <point x="62" y="80"/>
      <point x="84" y="58"/>
      <point x="112" y="58" type="curve" smooth="yes"/>
      <point x="140" y="58"/>
      <point x="163" y="80"/>
      <point x="163" y="108" type="curve" smooth="yes"/>
      <point x="163" y="136"/>
      <point x="140" y="159"/>
      <point x="112" y="159" type="curve" smooth="yes"/>
      <point x="84" y="159"/>
      <point x="62" y="136"/>
    </contour>
    <contour>
      <point x="30" y="107" type="curve" smooth="yes"/>
      <point x="30" y="152"/>
      <point x="67" y="189"/>
      <point x="112" y="189" type="curve" smooth="yes"/>
      <point x="157" y="189"/>
      <point x="194" y="152"/>
      <point x="194" y="107" type="curve" smooth="yes"/>
      <point x="194" y="62"/>
      <point x="157" y="25"/>
      <point x="112" y="25" type="curve" smooth="yes"/>
      <point x="67" y="25"/>
      <point x="30" y="62"/>
    </contour>
    <contour>
      <point x="62" y="306" type="curve" smooth="yes"/>
      <point x="62" y="278"/>
      <point x="84" y="255"/>
      <point x="112" y="255" type="curve" smooth="yes"/>
      <point x="140" y="255"/>
      <point x="163" y="278"/>
      <point x="163" y="306" type="curve" smooth="yes"/>
      <point x="163" y="334"/>
      <point x="140" y="356"/>
      <point x="112" y="356" type="curve" smooth="yes"/>
      <point x="84" y="356"/>
      <point x="62" y="334"/>
    </contour>
    <contour>
      <point x="30" y="305" type="curve" smooth="yes"/>
      <point x="30" y="350"/>
      <point x="67" y="387"/>
      <point x="112" y="387" type="curve" smooth="yes"/>
      <point x="157" y="387"/>
      <point x="194" y="350"/>
      <point x="194" y="305" type="curve" smooth="yes"/>
      <point x="194" y="260"/>
      <point x="157" y="223"/>
      <point x="112" y="223" type="curve" smooth="yes"/>
      <point x="67" y="223"/>
      <point x="30" y="260"/>
    </contour>
  </outline>
</glyph>
<glyph name="si_A" format="1">
  <advance width="559"/>
  <unicode hex="0D85"/>
  <outline>
    <contour>
      <point x="375" y="198" type="curve"/>
      <point x="375" y="229" type="line"/>
      <point x="382" y="226"/>
      <point x="386" y="226"/>
      <point x="397" y="226" type="curve" smooth="yes"/>
      <point x="423" y="226"/>
      <point x="441" y="250"/>
      <point x="441" y="284" type="curve" smooth="yes"/>
      <point x="441" y="306"/>
      <point x="437" y="321"/>
      <point x="425" y="338" type="curve" smooth="yes"/>
      <point x="414" y="354"/>
      <point x="410" y="367"/>
      <point x="410" y="384" type="curve" smooth="yes"/>
      <point x="410" y="386"/>
      <point x="410" y="392"/>
      <point x="410" y="394" type="curve"/>
      <point x="428" y="408" type="line" smooth="yes"/>
      <point x="446" y="411" type="line"/>
      <point x="440" y="408"/>
      <point x="435" y="405"/>
      <point x="435" y="394" type="curve" smooth="yes"/>
      <point x="435" y="361"/>
      <point x="517" y="350"/>
      <point x="517" y="274" type="curve" smooth="yes"/>
      <point x="517" y="219"/>
      <point x="470" y="193"/>
      <point x="420" y="193" type="curve" smooth="yes"/>
      <point x="401" y="193"/>
      <point x="388" y="195"/>
    </contour>
    <contour>
      <point x="348" y="-210" type="line"/>
      <point x="348" y="-38"/>
      <point x="348" y="134"/>
      <point x="348" y="306" type="curve" smooth="yes"/>
      <point x="348" y="342"/>
      <point x="355" y="370"/>
      <point x="374" y="391" type="curve" smooth="yes"/>
      <point x="389" y="408"/>
      <point x="409" y="420"/>
      <point x="429" y="425" type="curve"/>
      <point x="453" y="414" type="line"/>
      <point x="384" y="385"/>
      <point x="379" y="342"/>
      <point x="379" y="304" type="curve" smooth="yes"/>
      <point x="379" y="-210" type="line"/>
    </contour>
    <contour>
      <point x="32" y="156" type="curve" smooth="yes"/>
      <point x="32" y="242"/>
      <point x="92" y="302"/>
      <point x="197" y="302" type="curve" smooth="yes"/>
      <point x="304" y="302" type="line"/>
      <point x="303" y="340"/>
      <point x="277" y="378"/>
      <point x="238" y="378" type="curve" smooth="yes"/>
      <point x="206" y="378"/>
      <point x="198" y="362"/>
      <point x="192" y="350" type="curve" smooth="yes"/>
      <point x="185" y="337"/>
      <point x="172" y="320"/>
      <point x="145" y="320" type="curve" smooth="yes"/>
      <point x="124" y="320"/>
      <point x="104" y="336"/>
      <point x="104" y="360" type="curve" smooth="yes"/>
      <point x="104" y="400"/>
      <point x="150" y="423"/>
      <point x="206" y="423" type="curve" smooth="yes"/>
      <point x="288" y="423"/>
      <point x="336" y="373"/>
      <point x="336" y="283" type="curve" smooth="yes"/>
      <point x="336" y="282"/>
      <point x="336" y="279"/>
      <point x="336" y="278" type="curve"/>
      <point x="302" y="278" type="line" smooth="yes"/>
      <point x="197" y="278"/>
      <point x="183" y="195"/>
      <point x="183" y="160" type="curve" smooth="yes"/>
      <point x="183" y="86"/>
      <point x="236" y="34"/>
      <point x="327" y="34" type="curve" smooth="yes"/>
      <point x="408" y="34"/>
      <point x="469" y="51"/>
      <point x="511" y="83" type="curve"/>
      <point x="511" y="50" type="line"/>
      <point x="461" y="17"/>
      <point x="377" y="-4"/>
      <point x="275" y="-4" type="curve" smooth="yes"/>
      <point x="115" y="-4"/>
      <point x="32" y="60"/>
    </contour>
  </outline>
</glyph>
<glyph name="si_vocalicL" format="1">
  <advance width="800"/>
  <unicode hex="0D8F"/>
  <outline>
    <contour>
      <point x="626" y="52" type="curve" smooth="yes"/>
      <point x="626" y="39"/>
      <point x="637" y="28"/>
      <point x="650" y="28" type="curve" smooth="yes"/>
      <point x="663" y="28"/>
      <point x="673" y="39"/>
      <point x="673" y="52" type="curve" smooth="yes"/>
      <point x="673" y="65"/>
      <point x="663" y="75"/>
      <point x="650" y="75" type="curve" smooth="yes"/>
      <point x="637" y="75"/>
      <point x="626" y="65"/>
    </contour>
    <contour>
      <point x="568" y="435" type="curve" smooth="yes"/>
      <point x="568" y="457"/>
      <point x="584" y="470"/>
      <point x="615" y="470" type="curve" smooth="yes"/>
      <point x="700" y="470"/>
      <point x="755" y="369"/>
      <point x="755" y="234" type="curve" smooth="yes"/>
      <point x="755" y="143"/>
      <point x="725" y="1"/>
      <point x="650" y="1" type="curve" smooth="yes"/>
      <point x="622" y="1"/>
      <point x="599" y="23"/>
      <point x="599" y="52" type="curve" smooth="yes"/>
      <point x="599" y="77"/>
      <point x="618" y="102"/>
      <point x="650" y="102" type="curve" smooth="yes"/>
      <point x="667" y="102"/>
      <point x="683" y="96"/>
      <point x="692" y="78" type="curve"/>
      <point x="712" y="112"/>
      <point x="722" y="183"/>
      <point x="722" y="234" type="curve" smooth="yes"/>
      <point x="722" y="336"/>
      <point x="685" y="439"/>
      <point x="619" y="439" type="curve" smooth="yes"/>
      <point x="611" y="439"/>
      <point x="601" y="437"/>
      <point x="601" y="422" type="curve" smooth="yes"/>
      <point x="601" y="410"/>
      <point x="605" y="398"/>
      <point x="617" y="380" type="curve"/>
      <point x="604" y="389"/>
      <point x="582" y="411"/>
      <point x="574" y="414" type="curve"/>
      <point x="569" y="420"/>
      <point x="568" y="430"/>
    </contour>
    <contour>
      <point x="112" y="52" type="curve" smooth="yes"/>
      <point x="112" y="39"/>
      <point x="122" y="28"/>
      <point x="135" y="28" type="curve" smooth="yes"/>
      <point x="148" y="28"/>
      <point x="159" y="39"/>
      <point x="159" y="52" type="curve" smooth="yes"/>
      <point x="159" y="65"/>
      <point x="148" y="75"/>
      <point x="135" y="75" type="curve" smooth="yes"/>
      <point x="122" y="75"/>
      <point x="112" y="65"/>
    </contour>
    <contour>
      <point x="30" y="234" type="curve" smooth="yes"/>
      <point x="30" y="369"/>
      <point x="85" y="470"/>
      <point x="170" y="470" type="curve" smooth="yes"/>
      <point x="201" y="470"/>
      <point x="217" y="457"/>
      <point x="217" y="435" type="curve" smooth="yes"/>
      <point x="217" y="430"/>
      <point x="216" y="422"/>
      <point x="211" y="416" type="curve"/>
      <point x="203" y="413"/>
      <point x="182" y="404"/>
      <point x="169" y="395" type="curve"/>
      <point x="178" y="404"/>
      <point x="185" y="414"/>
      <point x="185" y="426" type="curve" smooth="yes"/>
      <point x="185" y="435"/>
      <point x="175" y="439"/>
      <point x="167" y="439" type="curve" smooth="yes"/>
      <point x="101" y="439"/>
      <point x="63" y="336"/>
      <point x="63" y="234" type="curve" smooth="yes"/>
      <point x="63" y="183"/>
      <point x="73" y="112"/>
      <point x="93" y="78" type="curve"/>
      <point x="102" y="96"/>
      <point x="118" y="102"/>
      <point x="135" y="102" type="curve" smooth="yes"/>
      <point x="167" y="102"/>
      <point x="186" y="77"/>
      <point x="186" y="52" type="curve" smooth="yes"/>
      <point x="186" y="23"/>
      <point x="163" y="1"/>
      <point x="135" y="1" type="curve" smooth="yes"/>
      <point x="60" y="1"/>
      <point x="30" y="143"/>
    </contour>
    <contour>
      <point x="130" y="179" type="curve" smooth="yes"/>
      <point x="130" y="268"/>
      <point x="196" y="319"/>
      <point x="301" y="319" type="curve" smooth="yes"/>
      <point x="314" y="319"/>
      <point x="323" y="318"/>
      <point x="335" y="317" type="curve"/>
      <point x="335" y="321"/>
      <point x="336" y="325"/>
      <point x="336" y="328" type="curve" smooth="yes"/>
      <point x="336" y="367"/>
      <point x="311" y="381"/>
      <point x="289" y="381" type="curve" smooth="yes"/>
      <point x="262" y="381"/>
      <point x="247" y="368"/>
      <point x="241" y="350" type="curve" smooth="yes"/>
      <point x="235" y="330"/>
      <point x="218" y="318"/>
      <point x="194" y="318" type="curve" smooth="yes"/>
      <point x="173" y="318"/>
      <point x="153" y="329"/>
      <point x="153" y="358" type="curve" smooth="yes"/>
      <point x="153" y="398"/>
      <point x="200" y="423"/>
      <point x="254" y="423" type="curve" smooth="yes"/>
      <point x="325" y="423"/>
      <point x="368" y="391"/>
      <point x="368" y="326" type="curve" smooth="yes"/>
      <point x="368" y="315"/>
      <point x="367" y="302"/>
      <point x="364" y="289" type="curve"/>
      <point x="347" y="291"/>
      <point x="312" y="293"/>
      <point x="311" y="293" type="curve" smooth="yes"/>
      <point x="240" y="293"/>
      <point x="193" y="268"/>
      <point x="193" y="226" type="curve" smooth="yes"/>
      <point x="193" y="155"/>
      <point x="300" y="137"/>
      <point x="399" y="137" type="curve" smooth="yes"/>
      <point x="494" y="137"/>
      <point x="594" y="162"/>
      <point x="594" y="233" type="curve" smooth="yes"/>
      <point x="594" y="269"/>
      <point x="556" y="295"/>
      <point x="484" y="295" type="curve" smooth="yes"/>
      <point x="461" y="295"/>
      <point x="438" y="292"/>
      <point x="416" y="288" type="curve"/>
      <point x="414" y="299"/>
      <point x="413" y="310"/>
      <point x="413" y="320" type="curve" smooth="yes"/>
      <point x="413" y="387"/>
      <point x="457" y="423"/>
      <point x="528" y="423" type="curve" smooth="yes"/>
      <point x="593" y="423"/>
      <point x="627" y="384"/>
      <point x="627" y="346" type="curve" smooth="yes"/>
      <point x="627" y="326"/>
      <point x="619" y="309"/>
      <point x="601" y="296" type="curve"/>
      <point x="640" y="273"/>
      <point x="660" y="235"/>
      <point x="660" y="182" type="curve" smooth="yes"/>
      <point x="660" y="54"/>
      <point x="536" y="0"/>
      <point x="399" y="0" type="curve" smooth="yes"/>
      <point x="254" y="0"/>
      <point x="130" y="45"/>
    </contour>
    <contour>
      <point x="446" y="328" type="curve" smooth="yes"/>
      <point x="446" y="324"/>
      <point x="446" y="321"/>
      <point x="447" y="317" type="curve"/>
      <point x="464" y="319"/>
      <point x="478" y="320"/>
      <point x="493" y="320" type="curve" smooth="yes"/>
      <point x="525" y="320"/>
      <point x="551" y="317"/>
      <point x="575" y="308" type="curve"/>
      <point x="586" y="318"/>
      <point x="590" y="331"/>
      <point x="590" y="343" type="curve" smooth="yes"/>
      <point x="590" y="371"/>
      <point x="567" y="393"/>
      <point x="521" y="393" type="curve" smooth="yes"/>
      <point x="480" y="393"/>
      <point x="446" y="372"/>
    </contour>
  </outline>
</glyph>
<glyph name="si_E" format="1">
  <advance width="581"/>
  <unicode hex="0D91"/>
  <outline>
    <contour>
      <point x="44" y="161" type="curve" smooth="yes"/>
      <point x="44" y="191"/>
      <point x="53" y="222"/>
      <point x="76" y="242" type="curve" smooth="yes"/>
      <point x="92" y="256"/>
      <point x="111" y="266"/>
      <point x="136" y="271" type="curve"/>
      <point x="169" y="283"/>
      <point x="209" y="295"/>
      <point x="245" y="295" type="curve" smooth="yes"/>
      <point x="255" y="295" type="line"/>
      <point x="255" y="297"/>
      <point x="255" y="299"/>
      <point x="255" y="301" type="curve" smooth="yes"/>
      <point x="255" y="348"/>
      <point x="224" y="380"/>
      <point x="188" y="380" type="curve" smooth="yes"/>
      <point x="166" y="380"/>
      <point x="149" y="363"/>
      <point x="144" y="347" type="curve" smooth="yes"/>
      <point x="137" y="325"/>
      <point x="125" y="313"/>
      <point x="100" y="313" type="curve" smooth="yes"/>
      <point x="82" y="313"/>
      <point x="62" y="326"/>
      <point x="62" y="351" type="curve" smooth="yes"/>
      <point x="62" y="397"/>
      <point x="111" y="421"/>
      <point x="165" y="421" type="curve" smooth="yes"/>
      <point x="251" y="421"/>
      <point x="288" y="354"/>
      <point x="288" y="283" type="curve" smooth="yes"/>
      <point x="288" y="280"/>
      <point x="288" y="272"/>
      <point x="288" y="269" type="curve"/>
      <point x="228" y="269" type="line" smooth="yes"/>
      <point x="185" y="269"/>
      <point x="155" y="261"/>
      <point x="132" y="247" type="curve" smooth="yes"/>
      <point x="116" y="237"/>
      <point x="105" y="222"/>
      <point x="105" y="202" type="curve" smooth="yes"/>
      <point x="105" y="145"/>
      <point x="194" y="137"/>
      <point x="272" y="137" type="curve" smooth="yes"/>
      <point x="421" y="137"/>
      <point x="484" y="205"/>
      <point x="484" y="294" type="curve" smooth="yes"/>
      <point x="484" y="343"/>
      <point x="473" y="378"/>
      <point x="460" y="400" type="curve"/>
      <point x="445" y="370"/>
      <point x="416" y="351"/>
      <point x="374" y="351" type="curve" smooth="yes"/>
      <point x="312" y="351"/>
      <point x="276" y="405"/>
      <point x="276" y="469" type="curve" smooth="yes"/>
      <point x="276" y="518"/>
      <point x="291" y="553"/>
      <point x="317" y="583" type="curve"/>
      <point x="377" y="551"/>
      <point x="446" y="481"/>
      <point x="481" y="420" type="curve" smooth="yes"/>
      <point x="519" y="355"/>
      <point x="532" y="307"/>
      <point x="532" y="239" type="curve" smooth="yes"/>
      <point x="532" y="114"/>
      <point x="449" y="0"/>
      <point x="270" y="0" type="curve" smooth="yes"/>
      <point x="152" y="0"/>
      <point x="44" y="45"/>
    </contour>
    <contour>
      <point x="16" y="262" type="curve"/>
      <point x="16" y="295" type="line"/>
      <point x="253" y="295" type="line"/>
      <point x="284" y="269" type="line"/>
      <point x="126" y="269" type="line" smooth="yes"/>
      <point x="57" y="268"/>
      <point x="32" y="265"/>
    </contour>
    <contour>
      <point x="310" y="477" type="curve" smooth="yes"/>
      <point x="310" y="429"/>
      <point x="342" y="396"/>
      <point x="385" y="396" type="curve" smooth="yes"/>
      <point x="404" y="396"/>
      <point x="428" y="407"/>
      <point x="438" y="431" type="curve"/>
      <point x="409" y="474"/>
      <point x="363" y="517"/>
      <point x="326" y="544" type="curve"/>
      <point x="318" y="527"/>
      <point x="310" y="506"/>
    </contour>
  </outline>
</glyph>
<glyph name="si_Gha" format="1">
  <advance width="661"/>
  <unicode hex="0D9D"/>
  <outline>
    <contour>
      <point x="50" y="150" type="curve" smooth="yes"/>
      <point x="50" y="220"/>
      <point x="90" y="260"/>
      <point x="141" y="276" type="curve"/>
      <point x="174" y="288"/>
      <point x="227" y="301"/>
      <point x="263" y="301" type="curve" smooth="yes"/>
      <point x="271" y="301" type="line"/>
      <point x="271" y="303"/>
      <point x="272" y="303"/>
      <point x="272" y="305" type="curve" smooth="yes"/>
      <point x="272" y="347"/>
      <point x="244" y="378"/>
      <point x="208" y="378" type="curve" smooth="yes"/>
      <point x="186" y="378"/>
      <point x="172" y="366"/>
      <point x="165" y="347" type="curve" smooth="yes"/>
      <point x="158" y="326"/>
      <point x="143" y="312"/>
      <point x="118" y="312" type="curve" smooth="yes"/>
      <point x="96" y="312"/>
      <point x="80" y="326"/>
      <point x="80" y="351" type="curve" smooth="yes"/>
      <point x="80" y="397"/>
      <point x="129" y="421"/>
      <point x="183" y="421" type="curve" smooth="yes"/>
      <point x="269" y="421"/>
      <point x="306" y="360"/>
      <point x="306" y="286" type="curve" smooth="yes"/>
      <point x="306" y="283"/>
      <point x="306" y="276"/>
      <point x="306" y="273" type="curve"/>
      <point x="219" y="273" type="line" smooth="yes"/>
      <point x="160" y="273"/>
      <point x="109" y="239"/>
      <point x="109" y="196" type="curve" smooth="yes"/>
      <point x="109" y="153"/>
      <point x="143" y="135"/>
      <point x="178" y="135" type="curve" smooth="yes"/>
      <point x="209" y="135"/>
      <point x="227" y="139"/>
      <point x="235" y="146" type="curve"/>
      <point x="235" y="153"/>
      <point x="236" y="160"/>
      <point x="239" y="169" type="curve" smooth="yes"/>
      <point x="250" y="207"/>
      <point x="283" y="227"/>
      <point x="324" y="227" type="curve" smooth="yes"/>
      <point x="365" y="227"/>
      <point x="398" y="207"/>
      <point x="409" y="169" type="curve" smooth="yes"/>
      <point x="412" y="160"/>
      <point x="413" y="153"/>
      <point x="413" y="146" type="curve"/>
      <point x="421" y="139"/>
      <point x="440" y="135"/>
      <point x="471" y="135" type="curve" smooth="yes"/>
      <point x="514" y="135"/>
      <point x="556" y="160"/>
      <point x="556" y="209" type="curve" smooth="yes"/>
      <point x="556" y="245"/>
      <point x="523" y="281"/>
      <point x="438" y="281" type="curve" smooth="yes"/>
      <point x="403" y="281"/>
      <point x="377" y="279"/>
      <point x="345" y="272" type="curve"/>
      <point x="345" y="276"/>
      <point x="344" y="280"/>
      <point x="344" y="284" type="curve" smooth="yes"/>
      <point x="344" y="366"/>
      <point x="391" y="422"/>
      <point x="467" y="422" type="curve" smooth="yes"/>
      <point x="520" y="422"/>
      <point x="565" y="396"/>
      <point x="565" y="343" type="curve" smooth="yes"/>
      <point x="565" y="322"/>
      <point x="556" y="301"/>
      <point x="537" y="290" type="curve"/>
      <point x="583" y="267"/>
      <point x="613" y="216"/>
      <point x="613" y="162" type="curve" smooth="yes"/>
      <point x="613" y="57"/>
      <point x="543" y="0"/>
      <point x="453" y="0" type="curve" smooth="yes"/>
      <point x="430" y="0"/>
      <point x="402" y="4"/>
      <point x="372" y="12" type="curve"/>
      <point x="369" y="16"/>
      <point x="368" y="39"/>
      <point x="368" y="46" type="curve" smooth="yes"/>
      <point x="368" y="82"/>
      <point x="383" y="93"/>
      <point x="383" y="131" type="curve" smooth="yes"/>
      <point x="383" y="167"/>
      <point x="367" y="195"/>
      <point x="324" y="195" type="curve" smooth="yes"/>
      <point x="281" y="195"/>
      <point x="266" y="167"/>
      <point x="266" y="131" type="curve" smooth="yes"/>
      <point x="266" y="93"/>
      <point x="280" y="82"/>
      <point x="280" y="46" type="curve" smooth="yes"/>
      <point x="280" y="39"/>
      <point x="279" y="16"/>
      <point x="276" y="12" type="curve"/>
      <point x="246" y="4"/>
      <point x="218" y="0"/>
      <point x="195" y="0" type="curve" smooth="yes"/>
      <point x="106" y="0"/>
      <point x="50" y="74"/>
    </contour>
    <contour>
      <point x="5" y="267" type="curve"/>
      <point x="5" y="301" type="line"/>
      <point x="270" y="301" type="line"/>
      <point x="302" y="273" type="line"/>
      <point x="144" y="273" type="line" smooth="yes"/>
      <point x="75" y="272"/>
      <point x="21" y="270"/>
    </contour>
    <contour>
      <point x="376" y="303" type="curve"/>
      <point x="389" y="307"/>
      <point x="410" y="309"/>
      <point x="435" y="309" type="curve" smooth="yes"/>
      <point x="468" y="309"/>
      <point x="495" y="305"/>
      <point x="509" y="300" type="curve"/>
      <point x="518" y="307"/>
      <point x="524" y="318"/>
      <point x="524" y="336" type="curve" smooth="yes"/>
      <point x="524" y="367"/>
      <point x="488" y="381"/>
      <point x="460" y="381" type="curve" smooth="yes"/>
      <point x="409" y="381"/>
      <point x="381" y="356"/>
    </contour>
  </outline>
</glyph>
<glyph name="si_Nda" format="1">
  <advance width="525"/>
  <unicode hex="0DB3"/>
  <outline>
    <contour>
      <point x="112" y="165" type="curve" smooth="yes"/>
      <point x="112" y="268"/>
      <point x="184" y="310"/>
      <point x="300" y="310" type="curve" smooth="yes"/>
      <point x="414" y="310" type="line"/>
      <point x="405" y="355"/>
      <point x="376" y="381"/>
      <point x="344" y="381" type="curve" smooth="yes"/>
      <point x="325" y="381"/>
      <point x="311" y="370"/>
      <point x="303" y="353" type="curve" smooth="yes"/>
      <point x="293" y="332"/>
      <point x="276" y="325"/>
      <point x="257" y="325" type="curve" smooth="yes"/>
      <point x="233" y="325"/>
      <point x="215" y="341"/>
      <point x="215" y="362" type="curve" smooth="yes"/>
      <point x="215" y="397"/>
      <point x="255" y="423"/>
      <point x="309" y="423" type="curve" smooth="yes"/>
      <point x="393" y="423"/>
      <point x="435" y="379"/>
      <point x="452" y="284" type="curve"/>
      <point x="392" y="284" type="line" smooth="yes"/>
      <point x="306" y="284"/>
      <point x="262" y="251"/>
      <point x="262" y="169" type="curve" smooth="yes"/>
      <point x="262" y="87"/>
      <point x="313" y="43"/>
      <point x="361" y="43" type="curve" smooth="yes"/>
      <point x="391" y="43"/>
      <point x="415" y="47"/>
      <point x="454" y="92" type="curve"/>
      <point x="479" y="73" type="line"/>
      <point x="449" y="38"/>
      <point x="409" y="-16"/>
      <point x="409" y="-90" type="curve" smooth="yes"/>
      <point x="409" y="-131"/>
      <point x="421" y="-182"/>
      <point x="481" y="-201" type="curve"/>
      <point x="481" y="-232" type="line"/>
      <point x="461" y="-237"/>
      <point x="440" y="-240"/>
      <point x="423" y="-240" type="curve" smooth="yes"/>
      <point x="344" y="-240"/>
      <point x="311" y="-189"/>
      <point x="311" y="-133" type="curve" smooth="yes"/>
      <point x="311" y="-77"/>
      <point x="343" y="-39"/>
      <point x="390" y="8" type="curve"/>
      <point x="365" y="1"/>
      <point x="338" y="-1"/>
      <point x="311" y="-1" type="curve" smooth="yes"/>
      <point x="183" y="-1"/>
      <point x="112" y="67"/>
    </contour>
    <contour>
      <point x="26" y="216" type="curve" smooth="yes"/>
      <point x="26" y="329"/>
      <point x="95" y="426"/>
      <point x="259" y="426" type="curve" smooth="yes"/>
      <point x="284" y="426"/>
      <point x="313" y="425"/>
      <point x="346" y="419" type="curve"/>
      <point x="325" y="408"/>
      <point x="259" y="401"/>
      <point x="250" y="396" type="curve"/>
      <point x="173" y="396"/>
      <point x="58" y="361"/>
      <point x="58" y="213" type="curve" smooth="yes"/>
      <point x="58" y="134"/>
      <point x="84" y="76"/>
      <point x="132" y="33" type="curve"/>
      <point x="132" y="0" type="line"/>
      <point x="67" y="32"/>
      <point x="26" y="117"/>
    </contour>
  </outline>
</glyph>
<glyph name="si_MatraIi" format="1">
  <advance width="1"/>
  <unicode hex="0DD3"/>
  <outline>
    <contour>
      <point x="-243" y="502" type="curve" smooth="yes"/>
      <point x="-243" y="472"/>
      <point x="-214" y="448"/>
      <point x="-180" y="448" type="curve" smooth="yes"/>
      <point x="-146" y="448"/>
      <point x="-117" y="472"/>
      <point x="-117" y="502" type="curve" smooth="yes"/>
      <point x="-117" y="532"/>
      <point x="-146" y="556"/>
      <point x="-180" y="556" type="curve" smooth="yes"/>
      <point x="-214" y="556"/>
      <point x="-243" y="532"/>
    </contour>
    <contour>
      <point x="-573" y="505" type="curve" smooth="yes"/>
      <point x="-573" y="610"/>
      <point x="-452" y="655"/>
      <point x="-328" y="655" type="curve" smooth="yes"/>
      <point x="-214" y="655"/>
      <point x="-81" y="613"/>
      <point x="-81" y="512" type="curve" smooth="yes"/>
      <point x="-81" y="458"/>
      <point x="-125" y="419"/>
      <point x="-180" y="419" type="curve" smooth="yes"/>
      <point x="-237" y="419"/>
      <point x="-275" y="459"/>
      <point x="-275" y="503" type="curve" smooth="yes"/>
      <point x="-275" y="513"/>
      <point x="-273" y="536"/>
      <point x="-260" y="549" type="curve"/>
      <point x="-269" y="550"/>
      <point x="-308" y="552"/>
      <point x="-340" y="552" type="curve" smooth="yes"/>
      <point x="-432" y="552"/>
      <point x="-525" y="530"/>
      <point x="-525" y="471" type="curve" smooth="yes"/>
      <point x="-525" y="449"/>
      <point x="-514" y="427"/>
      <point x="-479" y="418" type="curve"/>
      <point x="-485" y="396" type="line"/>
      <point x="-537" y="401"/>
      <point x="-573" y="445"/>
    </contour>
  </outline>
</glyph>
<glyph name="si_MatraUu" format="1">
  <advance width="1"/>
  <unicode hex="0DD6"/>
  <outline>
    <contour>
      <point x="-568" y="-135" type="curve" smooth="yes"/>
      <point x="-568" y="-78"/>
      <point x="-521" y="-39"/>
      <point x="-469" y="-39" type="curve" smooth="yes"/>
      <point x="-428" y="-39"/>
      <point x="-396" y="-54"/>
      <point x="-374" y="-89" type="curve"/>
      <point x="-406" y="-100" type="line"/>
      <point x="-417" y="-83"/>
      <point x="-436" y="-68"/>
      <point x="-464" y="-68" type="curve" smooth="yes"/>
      <point x="-502" y="-68"/>
      <point x="-526" y="-93"/>
      <point x="-526" y="-117" type="curve" smooth="yes"/>
      <point x="-526" y="-148"/>
      <point x="-498" y="-163"/>
      <point x="-465" y="-163" type="curve" smooth="yes"/>
      <point x="-391" y="-163"/>
      <point x="-317" y="-112"/>
      <point x="-212" y="-112" type="curve" smooth="yes"/>
      <point x="-162" y="-112"/>
      <point x="-117" y="-131"/>
      <point x="-91" y="-162" type="curve"/>
      <point x="-91" y="148" type="line"/>
      <point x="-57" y="207" type="line"/>
      <point x="-57" y="-226" type="line"/>
      <point x="-82" y="-226" type="line"/>
      <point x="-97" y="-191"/>
      <point x="-141" y="-143"/>
      <point x="-202" y="-143" type="curve" smooth="yes"/>
      <point x="-291" y="-143"/>
      <point x="-364" y="-231"/>
      <point x="-460" y="-231" type="curve" smooth="yes"/>
      <point x="-514" y="-231"/>
      <point x="-568" y="-201"/>
    </contour>
  </outline>
</glyph>
<glyph name="daggerdbl" format="1">
  <advance width="455"/>
  <unicode hex="2021"/>
  <outline>
    <contour>
      <point x="228" y="555" type="curve" smooth="yes"/>
      <point x="201" y="555"/>
      <point x="178" y="544"/>
      <point x="178" y="510" type="curve" smooth="yes"/>
      <point x="178" y="476"/>
      <point x="206" y="431"/>
      <point x="215" y="362" type="curve"/>
      <point x="239" y="362" type="line"/>
      <point x="248" y="431"/>
      <point x="276" y="478"/>
      <point x="276" y="511" type="curve" smooth="yes"/>
      <point x="276" y="545"/>
      <point x="252" y="555"/>
    </contour>
    <contour>
      <point x="420" y="361" type="curve" smooth="yes"/>
      <point x="420" y="388"/>
      <point x="408" y="411"/>
      <point x="374" y="411" type="curve" smooth="yes"/>
      <point x="340" y="411"/>
      <point x="290" y="380"/>
      <point x="221" y="371" type="curve"/>
      <point x="221" y="352" type="line"/>
      <point x="290" y="343"/>
      <point x="342" y="313"/>
      <point x="375" y="313" type="curve" smooth="yes"/>
      <point x="409" y="313"/>
      <point x="420" y="335"/>
    </contour>
    <contour>
      <point x="35" y="363" type="curve" smooth="yes"/>
      <point x="35" y="336"/>
      <point x="47" y="313"/>
      <point x="81" y="313" type="curve" smooth="yes"/>
      <point x="115" y="313"/>
      <point x="165" y="343"/>
      <point x="234" y="352" type="curve"/>
      <point x="234" y="371" type="line"/>
      <point x="165" y="380"/>
      <point x="113" y="411"/>
      <point x="80" y="411" type="curve" smooth="yes"/>
      <point x="46" y="411"/>
      <point x="35" y="389"/>
    </contour>
    <contour>
      <point x="227" y="-74" type="curve" smooth="yes"/>
      <point x="254" y="-74"/>
      <point x="277" y="-63"/>
      <point x="277" y="-29" type="curve" smooth="yes"/>
      <point x="277" y="5"/>
      <point x="249" y="50"/>
      <point x="240" y="119" type="curve"/>
      <point x="216" y="119" type="line"/>
      <point x="207" y="50"/>
      <point x="179" y="3"/>
      <point x="179" y="-30" type="curve" smooth="yes"/>
      <point x="179" y="-64"/>
      <point x="203" y="-74"/>
    </contour>
    <contour>
      <point x="35" y="120" type="curve" smooth="yes"/>
      <point x="35" y="93"/>
      <point x="47" y="70"/>
      <point x="81" y="70" type="curve" smooth="yes"/>
      <point x="115" y="70"/>
      <point x="165" y="101"/>
      <point x="234" y="110" type="curve"/>
      <point x="234" y="129" type="line"/>
      <point x="165" y="138"/>
      <point x="113" y="168"/>
      <point x="80" y="168" type="curve" smooth="yes"/>
      <point x="46" y="168"/>
      <point x="35" y="146"/>
    </contour>
    <contour>
      <point x="420" y="118" type="curve" smooth="yes"/>
      <point x="420" y="145"/>
      <point x="408" y="168"/>
      <point x="374" y="168" type="curve" smooth="yes"/>
      <point x="340" y="168"/>
      <point x="290" y="138"/>
      <point x="221" y="129" type="curve"/>
      <point x="221" y="110" type="line"/>
      <point x="290" y="101"/>
      <point x="342" y="70"/>
      <point x="375" y="70" type="curve" smooth="yes"/>
      <point x="409" y="70"/>
      <point x="420" y="92"/>
    </contour>
    <component base="period" xScale="0.909" yScale="0.909" xOffset="141" yOffset="179"/>
  </outline>
</glyph>
<glyph name="guilsinglleft" format="1">
  <advance width="241"/>
  <unicode hex="2039"/>
  <outline>
    <contour>
      <point x="226" y="378" type="curve"/>
      <point x="205" y="395" type="line"/>
      <point x="150" y="333"/>
      <point x="57" y="271"/>
      <point x="30" y="240" type="curve" smooth="yes"/>
      <point x="20" y="228"/>
      <point x="15" y="216"/>
      <point x="15" y="204" type="curve" smooth="yes"/>
      <point x="15" y="192"/>
      <point x="20" y="180"/>
      <point x="30" y="168" type="curve" smooth="yes"/>
      <point x="55" y="140"/>
      <point x="146" y="76"/>
      <point x="205" y="14" type="curve"/>
      <point x="225" y="32" type="line"/>
      <point x="194" y="90"/>
      <point x="157" y="159"/>
      <point x="135" y="205" type="curve"/>
      <point x="166" y="260"/>
      <point x="194" y="318"/>
    </contour>
  </outline>
</glyph>
<glyph name="uni2126" format="1">
  <advance width="678"/>
  <unicode hex="2126"/>
  <outline>
    <contour>
      <point x="619" y="332" type="curve" smooth="yes"/>
      <point x="619" y="488"/>
      <point x="522" y="620"/>
      <point x="344" y="620" type="curve" smooth="yes"/>
      <point x="164" y="620"/>
      <point x="58" y="490"/>
      <point x="58" y="335" type="curve" smooth="yes"/>
      <point x="58" y="213"/>
      <point x="148" y="101"/>
      <point x="293" y="64" type="curve"/>
      <point x="293" y="75" type="line"/>
      <point x="220" y="116"/>
      <point x="208" y="231"/>
      <point x="208" y="345" type="curve" smooth="yes"/>
      <point x="208" y="487"/>
      <point x="241" y="594"/>
      <point x="341" y="594" type="curve" smooth="yes"/>
      <point x="441" y="594"/>
      <point x="469" y="484"/>
      <point x="469" y="340" type="curve" smooth="yes"/>
      <point x="469" y="227"/>
      <point x="459" y="115"/>
      <point x="385" y="75" type="curve"/>
      <point x="385" y="64" type="line"/>
      <point x="529" y="96"/>
      <point x="619" y="207"/>
    </contour>
    <contour>
      <point x="611" y="136" type="line" smooth="yes"/>
      <point x="595" y="93"/>
      <point x="576" y="85"/>
      <point x="537" y="85" type="curve" smooth="yes"/>
      <point x="412" y="85" type="line"/>
      <point x="385" y="75" type="line"/>
      <point x="385" y="0" type="line"/>
      <point x="648" y="0" type="line"/>
      <point x="649" y="177" type="line"/>
      <point x="626" y="177" type="line"/>
    </contour>
    <contour>
      <point x="29" y="177" type="line"/>
      <point x="30" y="0" type="line"/>
      <point x="293" y="0" type="line"/>
      <point x="293" y="75" type="line"/>
      <point x="267" y="85" type="line"/>
      <point x="141" y="85" type="line" smooth="yes"/>
      <point x="102" y="85"/>
      <point x="83" y="93"/>
      <point x="67" y="136" type="curve" smooth="yes"/>
      <point x="52" y="177" type="line"/>
    </contour>
  </outline>
</glyph>
<glyph name="partialdiff" format="1">
  <advance width="537"/>
  <unicode hex="2202"/>
  <outline>
    <contour>
      <point x="497" y="341" type="curve" smooth="yes"/>
      <point x="497" y="491"/>
      <point x="426" y="610"/>
      <point x="270" y="610" type="curve" smooth="yes"/>
      <point x="222" y="610"/>
      <point x="171" y="597"/>
      <point x="122" y="569" type="curve"/>
      <point x="138" y="542" type="line"/>
      <point x="182" y="566"/>
      <point x="221" y="579"/>
      <point x="255" y="579" type="curve" smooth="yes"/>
      <point x="328" y="579"/>
      <point x="374" y="522"/>
      <point x="374" y="403" type="curve" smooth="yes"/>
      <point x="374" y="367"/>
      <point x="368" y="328"/>
      <point x="356" y="287" type="curve"/>
      <point x="402" y="289" type="line"/>
      <point x="372" y="354"/>
      <point x="317" y="383"/>
      <point x="259" y="383" type="curve" smooth="yes"/>
      <point x="111" y="383"/>
      <point x="30" y="282"/>
      <point x="30" y="163" type="curve" smooth="yes"/>
      <point x="30" y="73"/>
      <point x="89" y="-10"/>
      <point x="216" y="-10" type="curve" smooth="yes"/>
      <point x="395" y="-10"/>
      <point x="497" y="164"/>
    </contour>
    <contour>
      <point x="165" y="141" type="curve" smooth="yes"/>
      <point x="165" y="281"/>
      <point x="214" y="352"/>
      <point x="268" y="352" type="curve" smooth="yes"/>
      <point x="318" y="352"/>
      <point x="341" y="296"/>
      <point x="341" y="221" type="curve" smooth="yes"/>
      <point x="341" y="122"/>
      <point x="300" y="17"/>
      <point x="231" y="17" type="curve" smooth="yes"/>
      <point x="188" y="17"/>
      <point x="165" y="57"/>
    </contour>
  </outline>
</glyph>
<glyph name="five.numr" format="1">
  <advance width="523"/>
  <outline>
    <contour>
      <point x="493" y="190" type="curve" smooth="yes"/>
      <point x="493" y="311"/>
      <point x="393" y="370"/>
      <point x="275" y="370" type="curve" smooth="yes"/>
      <point x="213" y="370"/>
      <point x="158" y="351"/>
      <point x="106" y="313" type="curve"/>
      <point x="128" y="285" type="line"/>
      <point x="167" y="317"/>
      <point x="206" y="329"/>
      <point x="241" y="329" type="curve" smooth="yes"/>
      <point x="308" y="329"/>
      <point x="358" y="277"/>
      <point x="358" y="180" type="curve" smooth="yes"/>
      <point x="358" y="104"/>
      <point x="327" y="17"/>
      <point x="240" y="17" type="curve" smooth="yes"/>
      <point x="115" y="17"/>
      <point x="234" y="182"/>
      <point x="109" y="182" type="curve" smooth="yes"/>
      <point x="66" y="182"/>
      <point x="43" y="154"/>
      <point x="43" y="118" type="curve" smooth="yes"/>
      <point x="43" y="29"/>
      <point x="131" y="-10"/>
      <point x="236" y="-10" type="curve" smooth="yes"/>
      <point x="361" y="-10"/>
      <point x="493" y="51"/>
    </contour>
    <contour>
      <point x="128" y="584" type="line"/>
      <point x="93" y="584" type="line"/>
      <point x="93" y="311" type="line"/>
      <point x="128" y="285" type="line"/>
    </contour>
    <contour>
      <point x="444" y="649" type="curve"/>
      <point x="416" y="649" type="line"/>
      <point x="403" y="612"/>
      <point x="385" y="601"/>
      <point x="315" y="601" type="curve" smooth="yes"/>
      <point x="270" y="601"/>
      <point x="194" y="606"/>
      <point x="93" y="610" type="curve"/>
      <point x="93" y="510" type="line"/>
      <point x="159" y="501"/>
      <point x="225" y="497"/>
      <point x="272" y="497" type="curve" smooth="yes"/>
      <point x="423" y="497"/>
      <point x="444" y="523"/>
    </contour>
  </outline>
</glyph>
<glyph name="si_CU" format="1">
  <advance width="583"/>
  <outline>
    <contour>
      <point x="69" y="-139" type="curve" smooth="yes"/>
      <point x="69" y="-88"/>
      <point x="114" y="-49"/>
      <point x="168" y="-49" type="curve" smooth="yes"/>
      <point x="209" y="-49"/>
      <point x="246" y="-72"/>
      <point x="260" y="-107" type="curve"/>
      <point x="228" y="-119" type="line"/>
      <point x="221" y="-102"/>
      <point x="200" y="-80"/>
      <point x="168" y="-80" type="curve" smooth="yes"/>
      <point x="132" y="-80"/>
      <point x="104" y="-107"/>
      <point x="104" y="-139" type="curve" smooth="yes"/>
      <point x="104" y="-167"/>
      <point x="125" y="-188"/>
      <point x="193" y="-188" type="curve" smooth="yes"/>
      <point x="516" y="-188" type="line"/>
      <point x="516" y="125" type="line"/>
      <point x="551" y="214" type="line"/>
      <point x="551" y="-229" type="line"/>
      <point x="172" y="-229" type="line" smooth="yes"/>
      <point x="94" y="-229"/>
      <point x="69" y="-182"/>
    </contour>
    <component base="si_Ca"/>
  </outline>
</glyph>
<glyph name="si_DvocR" format="1">
  <advance width="686"/>
  <outline>
    <contour>
      <point x="413" y="243" type="curve" smooth="yes"/>
      <point x="413" y="321"/>
      <point x="447" y="384"/>
      <point x="525" y="384" type="curve" smooth="yes"/>
      <point x="610" y="384"/>
      <point x="645" y="306"/>
      <point x="645" y="198" type="curve" smooth="yes"/>
      <point x="645" y="140"/>
      <point x="628" y="51"/>
      <point x="628" y="22" type="curve" smooth="yes"/>
      <point x="628" y="15"/>
      <point x="628" y="9"/>
      <point x="629" y="3" type="curve"/>
      <point x="556" y="3" type="line"/>
      <point x="553" y="12"/>
      <point x="549" y="17"/>
      <point x="542" y="17" type="curve" smooth="yes"/>
      <point x="530" y="17"/>
      <point x="522" y="-1"/>
      <point x="494" y="-1" type="curve" smooth="yes"/>
      <point x="436" y="-1"/>
      <point x="413" y="65"/>
      <point x="413" y="104" type="curve" smooth="yes"/>
      <point x="413" y="150"/>
      <point x="434" y="184"/>
      <point x="477" y="202" type="curve" smooth="yes"/>
      <point x="499" y="211"/>
      <point x="524" y="215"/>
      <point x="531" y="215" type="curve"/>
      <point x="531" y="303"/>
      <point x="522" y="332"/>
      <point x="494" y="332" type="curve" smooth="yes"/>
      <point x="461" y="332"/>
      <point x="438" y="301"/>
      <point x="438" y="240" type="curve" smooth="yes"/>
      <point x="438" y="238"/>
      <point x="438" y="238"/>
      <point x="438" y="236" type="curve"/>
      <point x="413" y="236" type="line"/>
      <point x="413" y="239"/>
      <point x="413" y="240"/>
    </contour>
    <contour>
      <point x="443" y="104" type="curve" smooth="yes"/>
      <point x="443" y="74"/>
      <point x="457" y="29"/>
      <point x="496" y="29" type="curve" smooth="yes"/>
      <point x="516" y="29"/>
      <point x="521" y="35"/>
      <point x="529" y="39" type="curve" smooth="yes"/>
      <point x="532" y="40"/>
      <point x="535" y="41"/>
      <point x="538" y="41" type="curve"/>
      <point x="530" y="46"/>
      <point x="530" y="74"/>
      <point x="530" y="111" type="curve" smooth="yes"/>
      <point x="530" y="142"/>
      <point x="531" y="161"/>
      <point x="531" y="179" type="curve" smooth="yes"/>
      <point x="531" y="182"/>
      <point x="531" y="186"/>
      <point x="531" y="188" type="curve"/>
      <point x="528" y="188"/>
      <point x="509" y="183"/>
      <point x="501" y="181" type="curve" smooth="yes"/>
      <point x="466" y="170"/>
      <point x="443" y="147"/>
    </contour>
    <component base="si_Da"/>
  </outline>
</glyph>
<glyph name="si_KVU" format="1">
  <advance width="1036"/>
  <outline>
    <contour>
      <point x="497" y="-139" type="curve" smooth="yes"/>
      <point x="497" y="-88"/>
      <point x="542" y="-49"/>
      <point x="596" y="-49" type="curve" smooth="yes"/>
      <point x="637" y="-49"/>
      <point x="674" y="-72"/>
      <point x="688" y="-107" type="curve"/>
      <point x="656" y="-119" type="line"/>
      <point x="649" y="-102"/>
      <point x="628" y="-80"/>
      <point x="596" y="-80" type="curve" smooth="yes"/>
      <point x="560" y="-80"/>
      <point x="532" y="-107"/>
      <point x="532" y="-139" type="curve" smooth="yes"/>
      <point x="532" y="-167"/>
      <point x="553" y="-188"/>
      <point x="621" y="-188" type="curve" smooth="yes"/>
      <point x="945" y="-188" type="line"/>
      <point x="945" y="125" type="line"/>
      <point x="979" y="214" type="line"/>
      <point x="979" y="-229" type="line"/>
      <point x="600" y="-229" type="line" smooth="yes"/>
      <point x="522" y="-229"/>
      <point x="497" y="-182"/>
    </contour>
    <component base="si_KVa"/>
  </outline>
</glyph>
<glyph name="si_LI" format="1">
  <advance width="654"/>
  <outline>
    <contour>
      <point x="118" y="506" type="curve" smooth="yes"/>
      <point x="118" y="612"/>
      <point x="228" y="655"/>
      <point x="345" y="655" type="curve" smooth="yes"/>
      <point x="462" y="655"/>
      <point x="572" y="612"/>
      <point x="572" y="506" type="curve" smooth="yes"/>
      <point x="572" y="433"/>
      <point x="507" y="399"/>
      <point x="432" y="396" type="curve"/>
      <point x="420" y="418" type="line"/>
      <point x="472" y="421"/>
      <point x="506" y="437"/>
      <point x="506" y="468" type="curve" smooth="yes"/>
      <point x="506" y="509"/>
      <point x="429" y="523"/>
      <point x="345" y="523" type="curve" smooth="yes"/>
      <point x="258" y="523"/>
      <point x="180" y="510"/>
      <point x="180" y="468" type="curve" smooth="yes"/>
      <point x="180" y="440"/>
      <point x="217" y="418"/>
      <point x="289" y="416" type="curve"/>
      <point x="318" y="414" type="line"/>
      <point x="258" y="396" type="line"/>
      <point x="183" y="399"/>
      <point x="118" y="433"/>
    </contour>
    <component base="si_La"/>
  </outline>
</glyph>
<glyph name="si_LIi" format="1">
  <advance width="654"/>
  <outline>
    <contour>
      <point x="418" y="502" type="curve" smooth="yes"/>
      <point x="418" y="473"/>
      <point x="445" y="449"/>
      <point x="479" y="449" type="curve" smooth="yes"/>
      <point x="513" y="449"/>
      <point x="541" y="473"/>
      <point x="541" y="502" type="curve" smooth="yes"/>
      <point x="541" y="531"/>
      <point x="513" y="554"/>
      <point x="479" y="554" type="curve" smooth="yes"/>
      <point x="445" y="554"/>
      <point x="418" y="531"/>
    </contour>
    <contour>
      <point x="97" y="505" type="curve" smooth="yes"/>
      <point x="97" y="611"/>
      <point x="210" y="655"/>
      <point x="334" y="655" type="curve" smooth="yes"/>
      <point x="448" y="655"/>
      <point x="578" y="613"/>
      <point x="578" y="512" type="curve" smooth="yes"/>
      <point x="578" y="458"/>
      <point x="534" y="419"/>
      <point x="479" y="419" type="curve" smooth="yes"/>
      <point x="422" y="419"/>
      <point x="384" y="459"/>
      <point x="384" y="503" type="curve" smooth="yes"/>
      <point x="384" y="532"/>
      <point x="399" y="554"/>
      <point x="414" y="562" type="curve"/>
      <point x="395" y="564"/>
      <point x="376" y="564"/>
      <point x="357" y="564" type="curve" smooth="yes"/>
      <point x="252" y="564"/>
      <point x="170" y="530"/>
      <point x="170" y="477" type="curve" smooth="yes"/>
      <point x="170" y="441"/>
      <point x="205" y="415"/>
      <point x="268" y="415" type="curve" smooth="yes"/>
      <point x="277" y="415"/>
      <point x="303" y="417"/>
      <point x="312" y="418" type="curve"/>
      <point x="230" y="395" type="line"/>
      <point x="166" y="395"/>
      <point x="97" y="436"/>
    </contour>
    <component base="si_La"/>
  </outline>
</glyph>
<glyph name="si_LlU" format="1">
  <advance width="646"/>
  <outline>
    <contour>
      <point x="112" y="161" type="curve" smooth="yes"/>
      <point x="112" y="263"/>
      <point x="198" y="302"/>
      <point x="304" y="302" type="curve" smooth="yes"/>
      <point x="321" y="302" type="line"/>
      <point x="321" y="304"/>
      <point x="321" y="306"/>
      <point x="321" y="308" type="curve" smooth="yes"/>
      <point x="321" y="347"/>
      <point x="293" y="380"/>
      <point x="258" y="380" type="curve" smooth="yes"/>
      <point x="230" y="380"/>
      <point x="217" y="360"/>
      <point x="212" y="347" type="curve" smooth="yes"/>
      <point x="204" y="327"/>
      <point x="193" y="313"/>
      <point x="167" y="313" type="curve" smooth="yes"/>
      <point x="151" y="313"/>
      <point x="131" y="325"/>
      <point x="131" y="351" type="curve" smooth="yes"/>
      <point x="131" y="397"/>
      <point x="180" y="421"/>
      <point x="234" y="421" type="curve" smooth="yes"/>
      <point x="319" y="421"/>
      <point x="354" y="354"/>
      <point x="354" y="288" type="curve" smooth="yes"/>
      <point x="354" y="285"/>
      <point x="354" y="278"/>
      <point x="354" y="275" type="curve"/>
      <point x="295" y="275" type="line" smooth="yes"/>
      <point x="223" y="275"/>
      <point x="178" y="253"/>
      <point x="178" y="205" type="curve" smooth="yes"/>
      <point x="178" y="152"/>
      <point x="266" y="138"/>
      <point x="341" y="138" type="curve" smooth="yes"/>
      <point x="480" y="138"/>
      <point x="553" y="198"/>
      <point x="553" y="290" type="curve" smooth="yes"/>
      <point x="553" y="334"/>
      <point x="544" y="374"/>
      <point x="529" y="402" type="curve"/>
      <point x="515" y="370"/>
      <point x="485" y="351"/>
      <point x="443" y="351" type="curve" smooth="yes"/>
      <point x="381" y="351"/>
      <point x="345" y="405"/>
      <point x="345" y="469" type="curve" smooth="yes"/>
      <point x="345" y="518"/>
      <point x="360" y="553"/>
      <point x="386" y="583" type="curve"/>
      <point x="446" y="551"/>
      <point x="515" y="481"/>
      <point x="550" y="420" type="curve" smooth="yes"/>
      <point x="588" y="355"/>
      <point x="601" y="307"/>
      <point x="601" y="239" type="curve" smooth="yes"/>
      <point x="601" y="114"/>
      <point x="517" y="0"/>
      <point x="338" y="0" type="curve" smooth="yes"/>
      <point x="219" y="0"/>
      <point x="112" y="45"/>
    </contour>
    <contour>
      <point x="378" y="475" type="curve" smooth="yes"/>
      <point x="378" y="432"/>
      <point x="410" y="396"/>
      <point x="450" y="396" type="curve" smooth="yes"/>
      <point x="472" y="396"/>
      <point x="497" y="405"/>
      <point x="507" y="431" type="curve"/>
      <point x="478" y="474"/>
      <point x="431" y="518"/>
      <point x="395" y="544" type="curve"/>
      <point x="386" y="528"/>
      <point x="378" y="507"/>
    </contour>
    <contour>
      <point x="26" y="243" type="curve" smooth="yes"/>
      <point x="26" y="372"/>
      <point x="123" y="422"/>
      <point x="225" y="422" type="curve" smooth="yes"/>
      <point x="233" y="422"/>
      <point x="253" y="422"/>
      <point x="271" y="417" type="curve"/>
      <point x="255" y="396" type="line"/>
      <point x="227" y="394"/>
      <point x="201" y="396"/>
      <point x="169" y="387" type="curve" smooth="yes"/>
      <point x="102" y="369"/>
      <point x="58" y="329"/>
      <point x="58" y="240" type="curve" smooth="yes"/>
      <point x="58" y="163"/>
      <point x="104" y="93"/>
      <point x="174" y="75" type="curve"/>
      <point x="174" y="43" type="line"/>
      <point x="84" y="66"/>
      <point x="26" y="144"/>
    </contour>
  </outline>
</glyph>
<glyph name="si_MatraU.alt" format="1">
  <advance width="1"/>
  <outline>
    <contour>
      <point x="-307" y="-78" type="curve" smooth="yes"/>
      <point x="-307" y="-29"/>
      <point x="-278" y="5"/>
      <point x="-239" y="20" type="curve"/>
      <point x="-230" y="2" type="line"/>
      <point x="-252" y="-10"/>
      <point x="-263" y="-25"/>
      <point x="-263" y="-47" type="curve" smooth="yes"/>
      <point x="-263" y="-83"/>
      <point x="-220" y="-103"/>
      <point x="-170" y="-103" type="curve" smooth="yes"/>
      <point x="-110" y="-103"/>
      <point x="-65" y="-81"/>
      <point x="-65" y="-44" type="curve" smooth="yes"/>
      <point x="-65" y="-41"/>
      <point x="-65" y="-38"/>
      <point x="-65" y="-35" type="curve"/>
      <point x="-36" y="-35" type="line"/>
      <point x="-34" y="-44"/>
      <point x="-34" y="-59"/>
      <point x="-34" y="-68" type="curve" smooth="yes"/>
      <point x="-34" y="-119"/>
      <point x="-77" y="-187"/>
      <point x="-175" y="-187" type="curve" smooth="yes"/>
      <point x="-241" y="-187"/>
      <point x="-307" y="-146"/>
    </contour>
  </outline>
</glyph>
<glyph name="si_N.halant" format="1">
  <advance width="787"/>
  <outline>
    <contour>
      <point x="591" y="340" type="line"/>
      <point x="591" y="665" type="line"/>
      <point x="644" y="624"/>
      <point x="739" y="619"/>
      <point x="739" y="529" type="curve" smooth="yes"/>
      <point x="739" y="486"/>
      <point x="705" y="457"/>
      <point x="663" y="457" type="curve" smooth="yes"/>
      <point x="649" y="457"/>
      <point x="634" y="460"/>
      <point x="619" y="467" type="curve"/>
      <point x="619" y="323" type="line"/>
    </contour>
    <contour>
      <point x="619" y="492" type="line"/>
      <point x="627" y="488"/>
      <point x="638" y="486"/>
      <point x="651" y="486" type="curve" smooth="yes"/>
      <point x="682" y="486"/>
      <point x="695" y="510"/>
      <point x="695" y="533" type="curve" smooth="yes"/>
      <point x="695" y="573"/>
      <point x="664" y="592"/>
      <point x="619" y="622" type="curve"/>
    </contour>
    <component base="si_Na"/>
  </outline>
</glyph>
<glyph name="si_NdAa" format="1">
  <advance width="533"/>
  <outline>
    <contour>
      <point x="112" y="165" type="curve" smooth="yes"/>
      <point x="112" y="67"/>
      <point x="182" y="-1"/>
      <point x="310" y="-1" type="curve" smooth="yes"/>
      <point x="337" y="-1"/>
      <point x="354" y="1"/>
      <point x="365" y="2" type="curve"/>
      <point x="354" y="-8"/>
      <point x="347" y="-29"/>
      <point x="347" y="-44" type="curve"/>
      <point x="379" y="-44" type="line"/>
      <point x="379" y="-29"/>
      <point x="385" y="-17"/>
      <point x="402" y="-17" type="curve" smooth="yes"/>
      <point x="420" y="-17"/>
      <point x="433" y="-44"/>
      <point x="433" y="-88" type="curve" smooth="yes"/>
      <point x="433" y="-148"/>
      <point x="422" y="-172"/>
      <point x="398" y="-172" type="curve" smooth="yes"/>
      <point x="390" y="-172"/>
      <point x="384" y="-169"/>
      <point x="384" y="-162" type="curve"/>
      <point x="350" y="-162" type="line"/>
      <point x="350" y="-183"/>
      <point x="368" y="-208"/>
      <point x="416" y="-208" type="curve" smooth="yes"/>
      <point x="482" y="-208"/>
      <point x="518" y="-171"/>
      <point x="518" y="-85" type="curve" smooth="yes"/>
      <point x="518" y="-17"/>
      <point x="486" y="33"/>
      <point x="439" y="33" type="curve" smooth="yes"/>
      <point x="435" y="33"/>
      <point x="437" y="33"/>
      <point x="434" y="32" type="curve"/>
      <point x="449" y="40"/>
      <point x="465" y="57"/>
      <point x="485" y="73" type="curve"/>
      <point x="454" y="92" type="line"/>
      <point x="415" y="47"/>
      <point x="391" y="43"/>
      <point x="361" y="43" type="curve" smooth="yes"/>
      <point x="313" y="43"/>
      <point x="262" y="87"/>
      <point x="262" y="169" type="curve" smooth="yes"/>
      <point x="262" y="251"/>
      <point x="306" y="284"/>
      <point x="392" y="284" type="curve" smooth="yes"/>
      <point x="452" y="284" type="line"/>
      <point x="435" y="379"/>
      <point x="392" y="423"/>
      <point x="308" y="423" type="curve" smooth="yes"/>
      <point x="254" y="423"/>
      <point x="215" y="397"/>
      <point x="215" y="362" type="curve" smooth="yes"/>
      <point x="215" y="341"/>
      <point x="232" y="325"/>
      <point x="256" y="325" type="curve" smooth="yes"/>
      <point x="275" y="325"/>
      <point x="292" y="332"/>
      <point x="302" y="353" type="curve" smooth="yes"/>
      <point x="310" y="370"/>
      <point x="325" y="381"/>
      <point x="344" y="381" type="curve" smooth="yes"/>
      <point x="376" y="381"/>
      <point x="405" y="355"/>
      <point x="414" y="310" type="curve"/>
      <point x="300" y="310" type="line" smooth="yes"/>
      <point x="184" y="310"/>
      <point x="112" y="268"/>
    </contour>
    <contour>
      <point x="346" y="419" type="curve"/>
      <point x="313" y="425"/>
      <point x="284" y="426"/>
      <point x="259" y="426" type="curve" smooth="yes"/>
      <point x="95" y="426"/>
      <point x="26" y="329"/>
      <point x="26" y="216" type="curve" smooth="yes"/>
      <point x="26" y="117"/>
      <point x="67" y="32"/>
      <point x="132" y="0" type="curve"/>
      <point x="132" y="33" type="line"/>
      <point x="84" y="76"/>
      <point x="58" y="134"/>
      <point x="58" y="213" type="curve" smooth="yes"/>
      <point x="58" y="361"/>
      <point x="173" y="396"/>
      <point x="250" y="396" type="curve"/>
      <point x="259" y="401"/>
      <point x="325" y="408"/>
    </contour>
  </outline>
</glyph>
<glyph name="si_NdAae" format="1">
  <advance width="527"/>
  <outline>
    <contour>
      <point x="112" y="165" type="curve" smooth="yes"/>
      <point x="112" y="268"/>
      <point x="184" y="310"/>
      <point x="300" y="310" type="curve" smooth="yes"/>
      <point x="414" y="310" type="line"/>
      <point x="405" y="355"/>
      <point x="376" y="381"/>
      <point x="344" y="381" type="curve" smooth="yes"/>
      <point x="325" y="381"/>
      <point x="310" y="370"/>
      <point x="302" y="353" type="curve" smooth="yes"/>
      <point x="292" y="332"/>
      <point x="275" y="325"/>
      <point x="256" y="325" type="curve" smooth="yes"/>
      <point x="232" y="325"/>
      <point x="215" y="341"/>
      <point x="215" y="362" type="curve" smooth="yes"/>
      <point x="215" y="397"/>
      <point x="254" y="423"/>
      <point x="308" y="423" type="curve" smooth="yes"/>
      <point x="392" y="423"/>
      <point x="435" y="379"/>
      <point x="452" y="284" type="curve"/>
      <point x="392" y="284" type="line" smooth="yes"/>
      <point x="306" y="284"/>
      <point x="262" y="251"/>
      <point x="262" y="169" type="curve" smooth="yes"/>
      <point x="262" y="87"/>
      <point x="313" y="43"/>
      <point x="361" y="43" type="curve" smooth="yes"/>
      <point x="391" y="43"/>
      <point x="415" y="47"/>
      <point x="454" y="92" type="curve"/>
      <point x="479" y="73" type="line"/>
      <point x="479" y="66"/>
      <point x="430" y="30"/>
      <point x="430" y="30" type="curve"/>
      <point x="498" y="30" type="line"/>
      <point x="498" y="5" type="line"/>
      <point x="437" y="-35" type="line"/>
      <point x="496" y="-35" type="line"/>
      <point x="496" y="-60" type="line"/>
      <point x="484" y="-73"/>
      <point x="466" y="-90"/>
      <point x="466" y="-133" type="curve" smooth="yes"/>
      <point x="466" y="-172"/>
      <point x="488" y="-195"/>
      <point x="504" y="-195" type="curve"/>
      <point x="504" y="-223" type="line"/>
      <point x="501" y="-224"/>
      <point x="497" y="-224"/>
      <point x="493" y="-224" type="curve" smooth="yes"/>
      <point x="438" y="-224"/>
      <point x="384" y="-185"/>
      <point x="384" y="-141" type="curve" smooth="yes"/>
      <point x="384" y="-103"/>
      <point x="411" y="-73"/>
      <point x="441" y="-60" type="curve"/>
      <point x="386" y="-60" type="line"/>
      <point x="386" y="-39" type="line"/>
      <point x="409" y="-25"/>
      <point x="430" y="-9"/>
      <point x="454" y="4" type="curve"/>
      <point x="452" y="4"/>
      <point x="400" y="4"/>
      <point x="400" y="4" type="curve"/>
      <point x="383" y="-10"/>
      <point x="352" y="-52"/>
      <point x="352" y="-105" type="curve" smooth="yes"/>
      <point x="352" y="-153"/>
      <point x="371" y="-189"/>
      <point x="389" y="-196" type="curve"/>
      <point x="389" y="-223" type="line"/>
      <point x="385" y="-224"/>
      <point x="376" y="-225"/>
      <point x="371" y="-225" type="curve" smooth="yes"/>
      <point x="310" y="-225"/>
      <point x="263" y="-193"/>
      <point x="263" y="-129" type="curve" smooth="yes"/>
      <point x="263" y="-77"/>
      <point x="301" y="-40"/>
      <point x="347" y="1" type="curve"/>
      <point x="339" y="-1"/>
      <point x="337" y="-1"/>
      <point x="310" y="-1" type="curve" smooth="yes"/>
      <point x="182" y="-1"/>
      <point x="112" y="67"/>
    </contour>
    <contour>
      <point x="346" y="419" type="curve"/>
      <point x="325" y="408"/>
      <point x="259" y="401"/>
      <point x="250" y="396" type="curve"/>
      <point x="173" y="396"/>
      <point x="58" y="361"/>
      <point x="58" y="213" type="curve" smooth="yes"/>
      <point x="58" y="134"/>
      <point x="84" y="76"/>
      <point x="132" y="33" type="curve"/>
      <point x="132" y="0" type="line"/>
      <point x="67" y="32"/>
      <point x="26" y="117"/>
      <point x="26" y="216" type="curve" smooth="yes"/>
      <point x="26" y="329"/>
      <point x="95" y="426"/>
      <point x="259" y="426" type="curve" smooth="yes"/>
      <point x="284" y="426"/>
      <point x="313" y="425"/>
    </contour>
  </outline>
</glyph>
<glyph name="si_NdRa" format="1">
  <advance width="525"/>
  <outline>
    <contour>
      <point x="115" y="-42" type="curve"/>
      <point x="141" y="-42" type="line"/>
      <point x="168" y="-82"/>
      <point x="206" y="-101"/>
      <point x="281" y="-101" type="curve" smooth="yes"/>
      <point x="369" y="-101"/>
      <point x="453" y="-37"/>
      <point x="453" y="50" type="curve" smooth="yes"/>
      <point x="453" y="71"/>
      <point x="452" y="64"/>
      <point x="451" y="72" type="curve"/>
      <point x="479" y="77" type="line"/>
      <point x="479" y="57"/>
      <point x="480" y="74"/>
      <point x="480" y="38" type="curve" smooth="yes"/>
      <point x="480" y="-106"/>
      <point x="395" y="-199"/>
      <point x="292" y="-199" type="curve" smooth="yes"/>
      <point x="189" y="-199"/>
      <point x="134" y="-141"/>
    </contour>
    <contour>
      <point x="112" y="165" type="curve" smooth="yes"/>
      <point x="112" y="268"/>
      <point x="184" y="310"/>
      <point x="300" y="310" type="curve" smooth="yes"/>
      <point x="414" y="310" type="line"/>
      <point x="405" y="355"/>
      <point x="376" y="381"/>
      <point x="344" y="381" type="curve" smooth="yes"/>
      <point x="325" y="381"/>
      <point x="311" y="370"/>
      <point x="303" y="353" type="curve" smooth="yes"/>
      <point x="293" y="332"/>
      <point x="276" y="325"/>
      <point x="257" y="325" type="curve" smooth="yes"/>
      <point x="233" y="325"/>
      <point x="215" y="341"/>
      <point x="215" y="362" type="curve" smooth="yes"/>
      <point x="215" y="397"/>
      <point x="255" y="423"/>
      <point x="309" y="423" type="curve" smooth="yes"/>
      <point x="393" y="423"/>
      <point x="435" y="379"/>
      <point x="452" y="284" type="curve"/>
      <point x="392" y="284" type="line" smooth="yes"/>
      <point x="306" y="284"/>
      <point x="262" y="251"/>
      <point x="262" y="169" type="curve" smooth="yes"/>
      <point x="262" y="87"/>
      <point x="313" y="43"/>
      <point x="361" y="43" type="curve" smooth="yes"/>
      <point x="391" y="43"/>
      <point x="415" y="47"/>
      <point x="454" y="92" type="curve"/>
      <point x="479" y="77" type="line"/>
      <point x="439" y="29"/>
      <point x="398" y="-1"/>
      <point x="311" y="-1" type="curve" smooth="yes"/>
      <point x="183" y="-1"/>
      <point x="112" y="67"/>
    </contour>
    <contour>
      <point x="26" y="216" type="curve" smooth="yes"/>
      <point x="26" y="329"/>
      <point x="95" y="426"/>
      <point x="259" y="426" type="curve" smooth="yes"/>
      <point x="284" y="426"/>
      <point x="313" y="425"/>
      <point x="346" y="419" type="curve"/>
      <point x="325" y="408"/>
      <point x="259" y="401"/>
      <point x="250" y="396" type="curve"/>
      <point x="173" y="396"/>
      <point x="58" y="361"/>
      <point x="58" y="213" type="curve" smooth="yes"/>
      <point x="58" y="134"/>
      <point x="84" y="76"/>
      <point x="132" y="33" type="curve"/>
      <point x="132" y="0" type="line"/>
      <point x="67" y="32"/>
      <point x="26" y="117"/>
    </contour>
  </outline>
</glyph>
<glyph name="si_Nd.halant" format="1">
  <advance width="525"/>
  <outline>
    <contour>
      <point x="339" y="403" type="line"/>
      <point x="339" y="665" type="line"/>
      <point x="392" y="624"/>
      <point x="487" y="619"/>
      <point x="487" y="529" type="curve" smooth="yes"/>
      <point x="487" y="486"/>
      <point x="453" y="457"/>
      <point x="411" y="457" type="curve" smooth="yes"/>
      <point x="397" y="457"/>
      <point x="382" y="460"/>
      <point x="367" y="467" type="curve"/>
      <point x="367" y="387" type="line"/>
    </contour>
    <contour>
      <point x="367" y="492" type="line"/>
      <point x="375" y="488"/>
      <point x="385" y="486"/>
      <point x="398" y="486" type="curve" smooth="yes"/>
      <point x="429" y="486"/>
      <point x="443" y="510"/>
      <point x="443" y="533" type="curve" smooth="yes"/>
      <point x="443" y="573"/>
      <point x="412" y="592"/>
      <point x="367" y="622" type="curve"/>
    </contour>
    <component base="si_Nda"/>
  </outline>
</glyph>
<glyph name="si_Ng.halant" format="1">
  <advance width="602"/>
  <outline>
    <contour>
      <point x="150" y="525" type="curve" smooth="yes"/>
      <point x="150" y="513"/>
      <point x="168" y="514"/>
      <point x="168" y="503" type="curve" smooth="yes"/>
      <point x="168" y="501"/>
      <point x="168" y="498"/>
      <point x="166" y="496" type="curve"/>
      <point x="197" y="503"/>
      <point x="226" y="507"/>
      <point x="271" y="507" type="curve" smooth="yes"/>
      <point x="376" y="507"/>
      <point x="448" y="477"/>
      <point x="502" y="415" type="curve"/>
      <point x="470" y="523"/>
      <point x="389" y="561"/>
      <point x="276" y="561" type="curve" smooth="yes"/>
      <point x="206" y="561"/>
      <point x="150" y="544"/>
    </contour>
    <contour>
      <point x="50" y="430" type="curve"/>
      <point x="50" y="462" type="line"/>
      <point x="81" y="474"/>
      <point x="130" y="487"/>
      <point x="130" y="496" type="curve" smooth="yes"/>
      <point x="130" y="508"/>
      <point x="103" y="508"/>
      <point x="103" y="533" type="curve" smooth="yes"/>
      <point x="103" y="569"/>
      <point x="158" y="614"/>
      <point x="270" y="614" type="curve" smooth="yes"/>
      <point x="473" y="614"/>
      <point x="534" y="479"/>
      <point x="546" y="348" type="curve"/>
      <point x="553" y="318"/>
      <point x="557" y="286"/>
      <point x="557" y="248" type="curve"/>
      <point x="485" y="297" type="line"/>
      <point x="485" y="305"/>
      <point x="485" y="301"/>
      <point x="485" y="305" type="curve" smooth="yes"/>
      <point x="485" y="375"/>
      <point x="433" y="480"/>
      <point x="268" y="480" type="curve" smooth="yes"/>
      <point x="194" y="480"/>
      <point x="129" y="467"/>
    </contour>
    <contour>
      <point x="87" y="338" type="curve" smooth="yes"/>
      <point x="87" y="312"/>
      <point x="110" y="291"/>
      <point x="138" y="291" type="curve" smooth="yes"/>
      <point x="166" y="291"/>
      <point x="189" y="312"/>
      <point x="189" y="338" type="curve" smooth="yes"/>
      <point x="189" y="364"/>
      <point x="166" y="385"/>
      <point x="138" y="385" type="curve" smooth="yes"/>
      <point x="110" y="385"/>
      <point x="87" y="364"/>
    </contour>
    <contour>
      <point x="50" y="137" type="curve" smooth="yes"/>
      <point x="50" y="207"/>
      <point x="106" y="253"/>
      <point x="175" y="253" type="curve" smooth="yes"/>
      <point x="210" y="253"/>
      <point x="239" y="247"/>
      <point x="273" y="247" type="curve" smooth="yes"/>
      <point x="318" y="247"/>
      <point x="333" y="270"/>
      <point x="333" y="302" type="curve" smooth="yes"/>
      <point x="333" y="372"/>
      <point x="257" y="400"/>
      <point x="209" y="400" type="curve" smooth="yes"/>
      <point x="195" y="400"/>
      <point x="188" y="399"/>
      <point x="180" y="398" type="curve"/>
      <point x="199" y="388"/>
      <point x="217" y="371"/>
      <point x="217" y="337" type="curve" smooth="yes"/>
      <point x="217" y="302"/>
      <point x="185" y="265"/>
      <point x="138" y="265" type="curve" smooth="yes"/>
      <point x="98" y="265"/>
      <point x="59" y="296"/>
      <point x="59" y="338" type="curve" smooth="yes"/>
      <point x="59" y="393"/>
      <point x="117" y="424"/>
      <point x="203" y="424" type="curve" smooth="yes"/>
      <point x="304" y="424"/>
      <point x="363" y="370"/>
      <point x="363" y="299" type="curve" smooth="yes"/>
      <point x="363" y="259"/>
      <point x="340" y="218"/>
      <point x="274" y="218" type="curve" smooth="yes"/>
      <point x="234" y="218"/>
      <point x="219" y="225"/>
      <point x="177" y="225" type="curve" smooth="yes"/>
      <point x="129" y="225"/>
      <point x="115" y="200"/>
      <point x="115" y="184" type="curve" smooth="yes"/>
      <point x="115" y="159"/>
      <point x="139" y="137"/>
      <point x="196" y="137" type="curve" smooth="yes"/>
      <point x="223" y="137"/>
      <point x="277" y="139"/>
      <point x="277" y="186" type="curve" smooth="yes"/>
      <point x="277" y="191" type="line"/>
      <point x="304" y="191" type="line"/>
      <point x="304" y="186" type="line" smooth="yes"/>
      <point x="304" y="141"/>
      <point x="345" y="137"/>
      <point x="377" y="137" type="curve" smooth="yes"/>
      <point x="449" y="137"/>
      <point x="485" y="217"/>
      <point x="485" y="301" type="curve"/>
      <point x="503" y="285"/>
      <point x="523" y="282"/>
      <point x="557" y="254" type="curve"/>
      <point x="557" y="111"/>
      <point x="504" y="0"/>
      <point x="406" y="0" type="curve" smooth="yes"/>
      <point x="346" y="0"/>
      <point x="322" y="21"/>
      <point x="291" y="58" type="curve"/>
      <point x="261" y="20"/>
      <point x="228" y="0"/>
      <point x="184" y="0" type="curve" smooth="yes"/>
      <point x="104" y="0"/>
      <point x="50" y="59"/>
    </contour>
  </outline>
</glyph>
<glyph name="si_PhUu" format="1">
  <advance width="569"/>
  <outline>
    <contour>
      <point x="44" y="-135" type="curve" smooth="yes"/>
      <point x="44" y="-78"/>
      <point x="92" y="-39"/>
      <point x="144" y="-39" type="curve" smooth="yes"/>
      <point x="185" y="-39"/>
      <point x="217" y="-54"/>
      <point x="239" y="-89" type="curve"/>
      <point x="207" y="-100" type="line"/>
      <point x="196" y="-83"/>
      <point x="177" y="-68"/>
      <point x="149" y="-68" type="curve" smooth="yes"/>
      <point x="111" y="-68"/>
      <point x="86" y="-93"/>
      <point x="86" y="-117" type="curve" smooth="yes"/>
      <point x="86" y="-148"/>
      <point x="115" y="-163"/>
      <point x="148" y="-163" type="curve" smooth="yes"/>
      <point x="222" y="-163"/>
      <point x="272" y="-112"/>
      <point x="364" y="-112" type="curve" smooth="yes"/>
      <point x="414" y="-112"/>
      <point x="453" y="-131"/>
      <point x="479" y="-162" type="curve"/>
      <point x="479" y="148" type="line"/>
      <point x="513" y="207" type="line"/>
      <point x="513" y="-226" type="line"/>
      <point x="488" y="-226" type="line"/>
      <point x="473" y="-191"/>
      <point x="434" y="-143"/>
      <point x="373" y="-143" type="curve" smooth="yes"/>
      <point x="289" y="-143"/>
      <point x="249" y="-231"/>
      <point x="153" y="-231" type="curve" smooth="yes"/>
      <point x="99" y="-231"/>
      <point x="44" y="-201"/>
    </contour>
    <component base="si_Pha"/>
  </outline>
</glyph>
<glyph name="si_RI" format="1">
  <advance width="515"/>
  <outline>
    <contour>
      <point x="48" y="486" type="curve" smooth="yes"/>
      <point x="48" y="576"/>
      <point x="161" y="643"/>
      <point x="264" y="643" type="curve" smooth="yes"/>
      <point x="325" y="643"/>
      <point x="383" y="618"/>
      <point x="383" y="554" type="curve" smooth="yes"/>
      <point x="383" y="541"/>
      <point x="380" y="521"/>
      <point x="373" y="510" type="curve"/>
      <point x="361" y="502"/>
      <point x="346" y="488"/>
      <point x="333" y="481" type="curve"/>
      <point x="341" y="492"/>
      <point x="349" y="509"/>
      <point x="349" y="529" type="curve" smooth="yes"/>
      <point x="349" y="571"/>
      <point x="308" y="573"/>
      <point x="292" y="573" type="curve" smooth="yes"/>
      <point x="236" y="573"/>
      <point x="114" y="528"/>
      <point x="114" y="458" type="curve" smooth="yes"/>
      <point x="114" y="425"/>
      <point x="144" y="416"/>
      <point x="168" y="416" type="curve" smooth="yes"/>
      <point x="188" y="416"/>
      <point x="190" y="417"/>
      <point x="207" y="421" type="curve"/>
      <point x="199" y="415"/>
      <point x="163" y="400"/>
      <point x="146" y="395" type="curve"/>
      <point x="83" y="398"/>
      <point x="48" y="429"/>
    </contour>
    <component base="si_Ra"/>
  </outline>
</glyph>
<glyph name="si_R.halant" format="1">
  <advance width="515"/>
  <outline>
    <contour>
      <point x="51" y="291" type="line"/>
      <point x="51" y="665" type="line"/>
      <point x="104" y="624"/>
      <point x="199" y="619"/>
      <point x="199" y="529" type="curve" smooth="yes"/>
      <point x="199" y="486"/>
      <point x="165" y="457"/>
      <point x="123" y="457" type="curve" smooth="yes"/>
      <point x="109" y="457"/>
      <point x="94" y="460"/>
      <point x="79" y="467" type="curve"/>
      <point x="79" y="301" type="line"/>
    </contour>
    <contour>
      <point x="79" y="492" type="line"/>
      <point x="87" y="488"/>
      <point x="98" y="486"/>
      <point x="111" y="486" type="curve" smooth="yes"/>
      <point x="142" y="486"/>
      <point x="155" y="510"/>
      <point x="155" y="533" type="curve" smooth="yes"/>
      <point x="155" y="573"/>
      <point x="124" y="592"/>
      <point x="79" y="622" type="curve"/>
    </contour>
    <component base="si_Ra"/>
  </outline>
</glyph>
<glyph name="si_SI" format="1">
  <advance width="661"/>
  <outline>
    <contour>
      <point x="99" y="506" type="curve" smooth="yes"/>
      <point x="99" y="612"/>
      <point x="208" y="655"/>
      <point x="325" y="655" type="curve" smooth="yes"/>
      <point x="442" y="655"/>
      <point x="552" y="612"/>
      <point x="552" y="506" type="curve" smooth="yes"/>
      <point x="552" y="433"/>
      <point x="487" y="399"/>
      <point x="412" y="396" type="curve"/>
      <point x="435" y="418" type="line"/>
      <point x="472" y="426"/>
      <point x="489" y="437"/>
      <point x="489" y="468" type="curve" smooth="yes"/>
      <point x="489" y="509"/>
      <point x="409" y="523"/>
      <point x="325" y="523" type="curve" smooth="yes"/>
      <point x="238" y="523"/>
      <point x="158" y="510"/>
      <point x="158" y="468" type="curve" smooth="yes"/>
      <point x="158" y="440"/>
      <point x="180" y="423"/>
      <point x="219" y="417" type="curve"/>
      <point x="238" y="396" type="line"/>
      <point x="163" y="399"/>
      <point x="99" y="433"/>
    </contour>
    <component base="si_Sa"/>
  </outline>
</glyph>
<glyph name="si_SsU" format="1">
  <advance width="607"/>
  <outline>
    <contour>
      <point x="44" y="-139" type="curve" smooth="yes"/>
      <point x="44" y="-88"/>
      <point x="89" y="-49"/>
      <point x="143" y="-49" type="curve" smooth="yes"/>
      <point x="184" y="-49"/>
      <point x="221" y="-72"/>
      <point x="235" y="-107" type="curve"/>
      <point x="203" y="-119" type="line"/>
      <point x="196" y="-102"/>
      <point x="175" y="-80"/>
      <point x="143" y="-80" type="curve" smooth="yes"/>
      <point x="107" y="-80"/>
      <point x="79" y="-107"/>
      <point x="79" y="-139" type="curve" smooth="yes"/>
      <point x="79" y="-167"/>
      <point x="100" y="-188"/>
      <point x="168" y="-188" type="curve" smooth="yes"/>
      <point x="520" y="-188" type="line"/>
      <point x="520" y="125" type="line"/>
      <point x="555" y="214" type="line"/>
      <point x="555" y="-229" type="line"/>
      <point x="147" y="-229" type="line" smooth="yes"/>
      <point x="69" y="-229"/>
      <point x="44" y="-182"/>
    </contour>
    <component base="si_Ssa"/>
  </outline>
</glyph>
<glyph name="si_TThI" format="1">
  <advance width="992"/>
  <outline>
    <contour>
      <point x="495" y="561" type="curve" smooth="yes"/>
      <point x="495" y="651"/>
      <point x="606" y="684"/>
      <point x="712" y="684" type="curve" smooth="yes"/>
      <point x="812" y="684"/>
      <point x="928" y="649"/>
      <point x="928" y="560" type="curve" smooth="yes"/>
      <point x="928" y="514"/>
      <point x="892" y="487"/>
      <point x="838" y="487" type="curve"/>
      <point x="833" y="492"/>
      <point x="826" y="502"/>
      <point x="822" y="509" type="curve"/>
      <point x="834" y="510"/>
      <point x="880" y="513"/>
      <point x="880" y="544" type="curve" smooth="yes"/>
      <point x="880" y="588"/>
      <point x="788" y="604"/>
      <point x="715" y="604" type="curve" smooth="yes"/>
      <point x="599" y="604"/>
      <point x="542" y="580"/>
      <point x="542" y="544" type="curve" smooth="yes"/>
      <point x="542" y="517"/>
      <point x="575" y="504"/>
      <point x="608" y="504" type="curve" smooth="yes"/>
      <point x="652" y="504"/>
      <point x="685" y="516"/>
      <point x="702" y="524" type="curve"/>
      <point x="701" y="518"/>
      <point x="702" y="507"/>
      <point x="698" y="492" type="curve"/>
      <point x="674" y="484"/>
      <point x="648" y="476"/>
      <point x="606" y="476" type="curve" smooth="yes"/>
      <point x="547" y="476"/>
      <point x="495" y="504"/>
    </contour>
    <component base="si_TTha"/>
  </outline>
</glyph>
<glyph name="si_Tt.halant" format="1">
  <advance width="588"/>
  <outline>
    <contour>
      <point x="141" y="525" type="curve" smooth="yes"/>
      <point x="141" y="513"/>
      <point x="159" y="514"/>
      <point x="159" y="503" type="curve" smooth="yes"/>
      <point x="159" y="501"/>
      <point x="158" y="498"/>
      <point x="156" y="496" type="curve"/>
      <point x="187" y="503"/>
      <point x="217" y="507"/>
      <point x="262" y="507" type="curve" smooth="yes"/>
      <point x="367" y="507"/>
      <point x="439" y="477"/>
      <point x="493" y="415" type="curve"/>
      <point x="461" y="523"/>
      <point x="380" y="561"/>
      <point x="267" y="561" type="curve" smooth="yes"/>
      <point x="197" y="561"/>
      <point x="141" y="544"/>
    </contour>
    <contour>
      <point x="41" y="430" type="curve"/>
      <point x="41" y="462" type="line"/>
      <point x="72" y="474"/>
      <point x="121" y="487"/>
      <point x="121" y="496" type="curve" smooth="yes"/>
      <point x="121" y="508"/>
      <point x="93" y="508"/>
      <point x="93" y="533" type="curve" smooth="yes"/>
      <point x="93" y="569"/>
      <point x="149" y="614"/>
      <point x="261" y="614" type="curve" smooth="yes"/>
      <point x="464" y="614"/>
      <point x="524" y="479"/>
      <point x="536" y="348" type="curve"/>
      <point x="543" y="319"/>
      <point x="544" y="287"/>
      <point x="544" y="263" type="curve"/>
      <point x="481" y="306" type="line"/>
      <point x="481" y="314"/>
      <point x="481" y="310"/>
      <point x="481" y="314" type="curve" smooth="yes"/>
      <point x="481" y="393"/>
      <point x="424" y="480"/>
      <point x="259" y="480" type="curve" smooth="yes"/>
      <point x="185" y="480"/>
      <point x="120" y="467"/>
    </contour>
    <contour>
      <point x="31" y="203" type="curve" smooth="yes"/>
      <point x="31" y="315"/>
      <point x="124" y="382"/>
      <point x="227" y="382" type="curve" smooth="yes"/>
      <point x="253" y="382"/>
      <point x="284" y="377"/>
      <point x="313" y="366" type="curve"/>
      <point x="313" y="335" type="line"/>
      <point x="287" y="348"/>
      <point x="260" y="354"/>
      <point x="229" y="354" type="curve" smooth="yes"/>
      <point x="151" y="354"/>
      <point x="96" y="314"/>
      <point x="96" y="256" type="curve" smooth="yes"/>
      <point x="96" y="170"/>
      <point x="183" y="137"/>
      <point x="271" y="137" type="curve" smooth="yes"/>
      <point x="391" y="137"/>
      <point x="481" y="203"/>
      <point x="481" y="311" type="curve"/>
      <point x="500" y="293"/>
      <point x="516" y="289"/>
      <point x="544" y="265" type="curve"/>
      <point x="544" y="113"/>
      <point x="437" y="-1"/>
      <point x="279" y="-1" type="curve" smooth="yes"/>
      <point x="130" y="-1"/>
      <point x="31" y="79"/>
    </contour>
  </outline>
</glyph>
<glyph name="zero.numr" format="1">
  <advance width="412"/>
  <outline>
    <contour>
      <point x="208" y="340" type="curve" smooth="yes"/>
      <point x="107" y="340"/>
      <point x="30" y="271"/>
      <point x="30" y="166" type="curve" smooth="yes"/>
      <point x="30" y="58"/>
      <point x="105" y="-10"/>
      <point x="205" y="-10" type="curve" smooth="yes"/>
      <point x="306" y="-10"/>
      <point x="382" y="58"/>
      <point x="382" y="164" type="curve" smooth="yes"/>
      <point x="382" y="274"/>
      <point x="308" y="340"/>
    </contour>
    <contour>
      <point x="207" y="11" type="curve" smooth="yes"/>
      <point x="159" y="11"/>
      <point x="143" y="54"/>
      <point x="143" y="164" type="curve" smooth="yes"/>
      <point x="143" y="273"/>
      <point x="159" y="319"/>
      <point x="207" y="319" type="curve" smooth="yes"/>
      <point x="253" y="319"/>
      <point x="269" y="274"/>
      <point x="269" y="167" type="curve" smooth="yes"/>
      <point x="269" y="59"/>
      <point x="255" y="11"/>
    </contour>
  </outline>
</glyph>
